<svg width="377" height="366" viewBox="0 0 377 366" fill="none" xmlns="http://www.w3.org/2000/svg">
<line x1="154.26" y1="12" x2="154.26" y2="355" stroke="white"/>
<ellipse cx="153.76" cy="12" rx="7.13554" ry="7" fill="white"/>
<ellipse cx="153.76" cy="61" rx="7.13554" ry="7" fill="white"/>
<ellipse cx="153.76" cy="110" rx="7.13554" ry="7" fill="white"/>
<ellipse cx="153.76" cy="159" rx="7.13554" ry="7" fill="white"/>
<ellipse cx="153.76" cy="208" rx="7.13554" ry="7" fill="white"/>
<ellipse cx="153.76" cy="257" rx="7.13554" ry="7" fill="white"/>
<ellipse cx="153.76" cy="306" rx="7.13554" ry="7" fill="white"/>
<ellipse cx="153.76" cy="355" rx="7.13554" ry="7" fill="white"/>
<path d="M11.8953 301.32L11.9753 299.24L2.21535 309.48L2.13535 311.56L11.8953 301.32ZM3.49535 299.8H2.13535V311.56L3.49535 309.8V299.8ZM11.9753 299.24L10.6153 301V311H11.9753V299.24ZM15.0376 307.32C15.0376 306.808 15.1443 306.355 15.3576 305.96C15.5816 305.555 15.8803 305.24 16.2536 305.016C16.6376 304.792 17.0696 304.68 17.5496 304.68C17.9443 304.68 18.3123 304.744 18.6536 304.872C19.0056 304.989 19.3096 305.149 19.5656 305.352C19.8216 305.555 20.0029 305.779 20.1096 306.024V304.424C19.8536 304.125 19.4856 303.896 19.0056 303.736C18.5363 303.565 18.0509 303.48 17.5496 303.48C16.8349 303.48 16.1896 303.645 15.6136 303.976C15.0376 304.307 14.5789 304.76 14.2376 305.336C13.9069 305.912 13.7416 306.573 13.7416 307.32C13.7416 308.056 13.9069 308.717 14.2376 309.304C14.5789 309.88 15.0376 310.333 15.6136 310.664C16.1896 310.995 16.8349 311.16 17.5496 311.16C18.0509 311.16 18.5363 311.08 19.0056 310.92C19.4856 310.749 19.8536 310.515 20.1096 310.216V308.616C20.0029 308.851 19.8216 309.075 19.5656 309.288C19.3096 309.491 19.0056 309.656 18.6536 309.784C18.3123 309.901 17.9443 309.96 17.5496 309.96C17.0696 309.96 16.6376 309.848 16.2536 309.624C15.8803 309.389 15.5816 309.075 15.3576 308.68C15.1443 308.285 15.0376 307.832 15.0376 307.32ZM28.1022 303.64H22.1022V311H23.3822V304.84H26.8222V311H28.1022V303.64ZM31.7085 314.52V303.64H30.4285V314.52H31.7085ZM37.8685 307.32C37.8685 306.52 37.7031 305.837 37.3725 305.272C37.0418 304.696 36.5991 304.253 36.0445 303.944C35.5005 303.635 34.8925 303.48 34.2205 303.48C33.6125 303.48 33.0738 303.635 32.6045 303.944C32.1458 304.253 31.7831 304.696 31.5165 305.272C31.2605 305.837 31.1325 306.52 31.1325 307.32C31.1325 308.109 31.2605 308.792 31.5165 309.368C31.7831 309.944 32.1458 310.387 32.6045 310.696C33.0738 311.005 33.6125 311.16 34.2205 311.16C34.8925 311.16 35.5005 311.005 36.0445 310.696C36.5991 310.387 37.0418 309.944 37.3725 309.368C37.7031 308.792 37.8685 308.109 37.8685 307.32ZM36.5725 307.32C36.5725 307.885 36.4551 308.365 36.2205 308.76C35.9965 309.155 35.6925 309.453 35.3085 309.656C34.9351 309.859 34.5191 309.96 34.0605 309.96C33.6871 309.96 33.3191 309.859 32.9565 309.656C32.5938 309.453 32.2951 309.155 32.0605 308.76C31.8258 308.365 31.7085 307.885 31.7085 307.32C31.7085 306.755 31.8258 306.275 32.0605 305.88C32.2951 305.485 32.5938 305.187 32.9565 304.984C33.3191 304.781 33.6871 304.68 34.0605 304.68C34.5191 304.68 34.9351 304.781 35.3085 304.984C35.6925 305.187 35.9965 305.485 36.2205 305.88C36.4551 306.275 36.5725 306.755 36.5725 307.32ZM40.2095 308.84C40.2095 308.541 40.2788 308.285 40.4175 308.072C40.5561 307.859 40.7641 307.693 41.0415 307.576C41.3295 307.459 41.6868 307.4 42.1135 307.4C42.5828 307.4 43.0041 307.464 43.3775 307.592C43.7508 307.709 44.1188 307.896 44.4815 308.152V307.4C44.4068 307.304 44.2681 307.181 44.0655 307.032C43.8628 306.872 43.5908 306.733 43.2495 306.616C42.9188 306.488 42.5188 306.424 42.0495 306.424C41.4095 306.424 40.8548 306.525 40.3855 306.728C39.9161 306.92 39.5535 307.197 39.2975 307.56C39.0415 307.923 38.9135 308.365 38.9135 308.888C38.9135 309.389 39.0255 309.811 39.2495 310.152C39.4841 310.483 39.7935 310.733 40.1775 310.904C40.5615 311.075 40.9828 311.16 41.4415 311.16C41.9535 311.16 42.4175 311.075 42.8335 310.904C43.2495 310.723 43.5801 310.467 43.8255 310.136C44.0815 309.795 44.2095 309.389 44.2095 308.92L43.9535 308.12C43.9535 308.579 43.8575 308.947 43.6655 309.224C43.4841 309.501 43.2281 309.704 42.8975 309.832C42.5668 309.96 42.1881 310.024 41.7615 310.024C41.4735 310.024 41.2121 309.981 40.9775 309.896C40.7428 309.8 40.5561 309.667 40.4175 309.496C40.2788 309.315 40.2095 309.096 40.2095 308.84ZM40.2095 305.368C40.3268 305.283 40.4868 305.181 40.6895 305.064C40.9028 304.936 41.1535 304.829 41.4415 304.744C41.7295 304.648 42.0495 304.6 42.4015 304.6C42.8068 304.6 43.1641 304.696 43.4735 304.888C43.7935 305.069 43.9535 305.347 43.9535 305.72V311H45.2335V305.72C45.2335 305.24 45.1108 304.835 44.8655 304.504C44.6308 304.173 44.3001 303.923 43.8735 303.752C43.4575 303.571 42.9668 303.48 42.4015 303.48C41.7401 303.48 41.1748 303.581 40.7055 303.784C40.2361 303.987 39.8628 304.189 39.5855 304.392L40.2095 305.368ZM48.1511 307.16V307.832H50.2791C50.5244 307.832 50.7324 307.859 50.9031 307.912C51.0844 307.955 51.2284 308.024 51.3351 308.12C51.4524 308.216 51.5378 308.323 51.5911 308.44C51.6551 308.557 51.6871 308.691 51.6871 308.84C51.6871 309.128 51.5698 309.373 51.3351 309.576C51.1111 309.779 50.7591 309.88 50.2791 309.88H48.1511V311H50.5991C51.4418 311 52.0444 310.808 52.4071 310.424C52.7804 310.029 52.9671 309.555 52.9671 309C52.9671 308.52 52.8498 308.147 52.6151 307.88C52.3804 307.613 52.0604 307.427 51.6551 307.32C51.2498 307.213 50.7911 307.16 50.2791 307.16H48.1511ZM48.1511 307.48H50.1191C50.5778 307.48 50.9938 307.416 51.3671 307.288C51.7511 307.149 52.0604 306.947 52.2951 306.68C52.5298 306.403 52.6471 306.056 52.6471 305.64C52.6471 305.16 52.5298 304.776 52.2951 304.488C52.0604 304.189 51.7511 303.976 51.3671 303.848C50.9938 303.709 50.5778 303.64 50.1191 303.64H48.1511V304.76H50.1191C50.5031 304.76 50.8071 304.851 51.0311 305.032C51.2551 305.203 51.3671 305.432 51.3671 305.72C51.3671 305.859 51.3351 305.992 51.2711 306.12C51.2178 306.237 51.1378 306.344 51.0311 306.44C50.9244 306.536 50.7911 306.611 50.6311 306.664C50.4818 306.707 50.3111 306.728 50.1191 306.728H48.1511V307.48ZM47.3991 303.64V311H48.6791V303.64H47.3991ZM60.8091 304.92L60.8891 303.08L54.8091 309.72L54.7291 311.56L60.8091 304.92ZM56.0091 303.64H54.7291V311.56L56.0091 309.8V303.64ZM60.8891 303.08L59.6091 304.84V311H60.8891V303.08ZM62.2478 303.64V304.84H66.5678V303.64H62.2478ZM63.7678 303.96V311H65.0478V303.96H63.7678ZM67.8522 303.64V311H69.1322V303.64H67.8522ZM68.6042 307.544H70.8922C71.3616 307.544 71.7136 307.645 71.9482 307.848C72.1829 308.051 72.3002 308.339 72.3002 308.712C72.3002 308.957 72.2469 309.171 72.1402 309.352C72.0336 309.523 71.8736 309.656 71.6602 309.752C71.4576 309.837 71.2016 309.88 70.8922 309.88H68.6042V311H70.8922C71.4042 311 71.8629 310.92 72.2682 310.76C72.6736 310.6 72.9936 310.349 73.2282 310.008C73.4629 309.667 73.5802 309.235 73.5802 308.712C73.5802 307.923 73.3189 307.347 72.7962 306.984C72.2842 306.611 71.6496 306.424 70.8922 306.424H68.6042V307.544ZM79.7435 307.32C79.7435 308.056 79.9088 308.717 80.2395 309.304C80.5808 309.88 81.0395 310.333 81.6155 310.664C82.1915 310.995 82.8368 311.16 83.5515 311.16C84.2768 311.16 84.9221 310.995 85.4875 310.664C86.0635 310.333 86.5168 309.88 86.8475 309.304C87.1888 308.717 87.3595 308.056 87.3595 307.32C87.3595 306.573 87.1888 305.912 86.8475 305.336C86.5168 304.76 86.0635 304.307 85.4875 303.976C84.9221 303.645 84.2768 303.48 83.5515 303.48C82.8368 303.48 82.1915 303.645 81.6155 303.976C81.0395 304.307 80.5808 304.76 80.2395 305.336C79.9088 305.912 79.7435 306.573 79.7435 307.32ZM81.0395 307.32C81.0395 306.808 81.1461 306.355 81.3595 305.96C81.5835 305.555 81.8821 305.24 82.2555 305.016C82.6395 304.792 83.0715 304.68 83.5515 304.68C84.0315 304.68 84.4581 304.792 84.8315 305.016C85.2155 305.24 85.5141 305.555 85.7275 305.96C85.9515 306.355 86.0635 306.808 86.0635 307.32C86.0635 307.832 85.9515 308.285 85.7275 308.68C85.5141 309.075 85.2155 309.389 84.8315 309.624C84.4581 309.848 84.0315 309.96 83.5515 309.96C83.0715 309.96 82.6395 309.848 82.2555 309.624C81.8821 309.389 81.5835 309.075 81.3595 308.68C81.1461 308.285 81.0395 307.832 81.0395 307.32ZM94.7978 309.8V303.64H93.5178V309.8H90.3978V303.64H89.1178V311H99.1978V303.64H97.9178V309.8H94.7978ZM107.762 304.92L107.842 303.08L101.762 309.72L101.682 311.56L107.762 304.92ZM102.962 303.64H101.682V311.56L102.962 309.8V303.64ZM107.842 303.08L106.562 304.84V311H107.842V303.08ZM113.489 304.68C113.969 304.68 114.396 304.792 114.769 305.016C115.153 305.24 115.452 305.555 115.665 305.96C115.889 306.355 116.001 306.808 116.001 307.32C116.001 307.832 115.889 308.285 115.665 308.68C115.452 309.075 115.153 309.389 114.769 309.624C114.396 309.848 113.969 309.96 113.489 309.96C113.009 309.96 112.577 309.848 112.193 309.624C111.82 309.389 111.521 309.075 111.297 308.68C111.073 308.285 110.961 307.832 110.961 307.32L109.681 306.36C109.681 307.416 109.846 308.301 110.177 309.016C110.518 309.731 110.977 310.269 111.553 310.632C112.129 310.984 112.774 311.16 113.489 311.16C114.214 311.16 114.86 310.995 115.425 310.664C116.001 310.333 116.454 309.88 116.785 309.304C117.126 308.717 117.297 308.056 117.297 307.32C117.297 306.573 117.126 305.912 116.785 305.336C116.454 304.76 116.001 304.307 115.425 303.976C114.86 303.645 114.214 303.48 113.489 303.48V304.68ZM110.385 307.32H110.961C110.961 306.893 111.036 306.52 111.185 306.2C111.345 305.869 111.548 305.592 111.793 305.368C112.049 305.144 112.326 304.973 112.625 304.856C112.924 304.739 113.212 304.68 113.489 304.68V303.48C113.03 303.48 112.609 303.571 112.225 303.752C111.852 303.923 111.526 304.173 111.249 304.504C110.972 304.835 110.758 305.24 110.609 305.72C110.46 306.189 110.385 306.723 110.385 307.32ZM109.681 306.36L110.801 307.208V305.56C110.801 305.027 110.87 304.493 111.009 303.96C111.148 303.416 111.398 302.931 111.761 302.504C112.134 302.077 112.652 301.757 113.313 301.544C113.9 301.352 114.422 301.112 114.881 300.824C115.35 300.536 115.729 300.2 116.017 299.816C116.305 299.421 116.476 298.989 116.529 298.52H115.265C115.19 298.904 114.972 299.272 114.609 299.624C114.257 299.965 113.718 300.259 112.993 300.504C112.14 300.792 111.468 301.208 110.977 301.752C110.497 302.285 110.161 302.936 109.969 303.704C109.777 304.472 109.681 305.357 109.681 306.36ZM118.975 303.64V311H120.255V303.64H118.975ZM122.975 303.64L119.775 306.68L123.295 311H124.895L121.375 306.68L124.575 303.64H122.975ZM132.262 304.92L132.342 303.08L126.262 309.72L126.182 311.56L132.262 304.92ZM127.462 303.64H126.182V311.56L127.462 309.8V303.64ZM132.342 303.08L131.062 304.84V311H132.342V303.08Z" fill="white"/>
<path d="M179.889 252.08V262H181.249V250.8H172.369V262H173.729V252.08H179.889ZM184.926 265.52V254.64H183.646V265.52H184.926ZM191.086 258.32C191.086 257.52 190.921 256.837 190.59 256.272C190.26 255.696 189.817 255.253 189.262 254.944C188.718 254.635 188.11 254.48 187.438 254.48C186.83 254.48 186.292 254.635 185.822 254.944C185.364 255.253 185.001 255.696 184.734 256.272C184.478 256.837 184.35 257.52 184.35 258.32C184.35 259.109 184.478 259.792 184.734 260.368C185.001 260.944 185.364 261.387 185.822 261.696C186.292 262.005 186.83 262.16 187.438 262.16C188.11 262.16 188.718 262.005 189.262 261.696C189.817 261.387 190.26 260.944 190.59 260.368C190.921 259.792 191.086 259.109 191.086 258.32ZM189.79 258.32C189.79 258.885 189.673 259.365 189.438 259.76C189.214 260.155 188.91 260.453 188.526 260.656C188.153 260.859 187.737 260.96 187.278 260.96C186.905 260.96 186.537 260.859 186.174 260.656C185.812 260.453 185.513 260.155 185.278 259.76C185.044 259.365 184.926 258.885 184.926 258.32C184.926 257.755 185.044 257.275 185.278 256.88C185.513 256.485 185.812 256.187 186.174 255.984C186.537 255.781 186.905 255.68 187.278 255.68C187.737 255.68 188.153 255.781 188.526 255.984C188.91 256.187 189.214 256.485 189.438 256.88C189.673 257.275 189.79 257.755 189.79 258.32ZM192.211 258.32C192.211 259.056 192.377 259.717 192.707 260.304C193.049 260.88 193.507 261.333 194.083 261.664C194.659 261.995 195.305 262.16 196.019 262.16C196.745 262.16 197.39 261.995 197.955 261.664C198.531 261.333 198.985 260.88 199.315 260.304C199.657 259.717 199.827 259.056 199.827 258.32C199.827 257.573 199.657 256.912 199.315 256.336C198.985 255.76 198.531 255.307 197.955 254.976C197.39 254.645 196.745 254.48 196.019 254.48C195.305 254.48 194.659 254.645 194.083 254.976C193.507 255.307 193.049 255.76 192.707 256.336C192.377 256.912 192.211 257.573 192.211 258.32ZM193.507 258.32C193.507 257.808 193.614 257.355 193.827 256.96C194.051 256.555 194.35 256.24 194.723 256.016C195.107 255.792 195.539 255.68 196.019 255.68C196.499 255.68 196.926 255.792 197.299 256.016C197.683 256.24 197.982 256.555 198.195 256.96C198.419 257.355 198.531 257.808 198.531 258.32C198.531 258.832 198.419 259.285 198.195 259.68C197.982 260.075 197.683 260.389 197.299 260.624C196.926 260.848 196.499 260.96 196.019 260.96C195.539 260.96 195.107 260.848 194.723 260.624C194.35 260.389 194.051 260.075 193.827 259.68C193.614 259.285 193.507 258.832 193.507 258.32ZM200.466 254.64V255.84H204.786V254.64H200.466ZM201.986 254.96V262H203.266V254.96H201.986ZM206.012 258.64H212.3C212.31 258.576 212.316 258.512 212.316 258.448C212.316 258.384 212.316 258.32 212.316 258.256C212.316 257.477 212.172 256.811 211.884 256.256C211.596 255.691 211.19 255.253 210.668 254.944C210.145 254.635 209.537 254.48 208.844 254.48C208.214 254.48 207.644 254.608 207.132 254.864C206.63 255.12 206.22 255.477 205.9 255.936C205.58 256.395 205.366 256.928 205.26 257.536C205.238 257.664 205.222 257.792 205.212 257.92C205.201 258.048 205.196 258.181 205.196 258.32C205.196 259.056 205.345 259.717 205.644 260.304C205.953 260.88 206.369 261.333 206.892 261.664C207.425 261.995 208.022 262.16 208.684 262.16C209.324 262.16 209.857 262.085 210.284 261.936C210.71 261.776 211.073 261.557 211.372 261.28C211.67 260.992 211.942 260.661 212.188 260.288L211.148 259.632C210.988 259.899 210.796 260.133 210.572 260.336C210.348 260.528 210.092 260.683 209.804 260.8C209.526 260.907 209.206 260.96 208.844 260.96C208.364 260.96 207.948 260.859 207.596 260.656C207.244 260.453 206.972 260.155 206.78 259.76C206.588 259.365 206.492 258.885 206.492 258.32L206.524 257.84C206.524 257.381 206.625 256.987 206.828 256.656C207.041 256.315 207.324 256.053 207.676 255.872C208.028 255.691 208.417 255.6 208.844 255.6C209.27 255.6 209.628 255.685 209.916 255.856C210.214 256.016 210.444 256.245 210.604 256.544C210.774 256.832 210.881 257.168 210.924 257.552H206.012V258.64ZM214.646 258.32C214.646 257.808 214.753 257.355 214.966 256.96C215.19 256.555 215.489 256.24 215.862 256.016C216.246 255.792 216.678 255.68 217.158 255.68C217.553 255.68 217.921 255.744 218.262 255.872C218.614 255.989 218.918 256.149 219.174 256.352C219.43 256.555 219.611 256.779 219.718 257.024V255.424C219.462 255.125 219.094 254.896 218.614 254.736C218.145 254.565 217.659 254.48 217.158 254.48C216.443 254.48 215.798 254.645 215.222 254.976C214.646 255.307 214.187 255.76 213.846 256.336C213.515 256.912 213.35 257.573 213.35 258.32C213.35 259.056 213.515 259.717 213.846 260.304C214.187 260.88 214.646 261.333 215.222 261.664C215.798 261.995 216.443 262.16 217.158 262.16C217.659 262.16 218.145 262.08 218.614 261.92C219.094 261.749 219.462 261.515 219.718 261.216V259.616C219.611 259.851 219.43 260.075 219.174 260.288C218.918 260.491 218.614 260.656 218.262 260.784C217.921 260.901 217.553 260.96 217.158 260.96C216.678 260.96 216.246 260.848 215.862 260.624C215.489 260.389 215.19 260.075 214.966 259.68C214.753 259.285 214.646 258.832 214.646 258.32ZM220.591 254.64V255.84H224.911V254.64H220.591ZM222.111 254.96V262H223.391V254.96H222.111ZM232.355 255.92L232.435 254.08L226.355 260.72L226.275 262.56L232.355 255.92ZM227.555 254.64H226.275V262.56L227.555 260.8V254.64ZM232.435 254.08L231.155 255.84V262H232.435V254.08ZM236.114 265.52V254.64H234.834V265.52H236.114ZM242.274 258.32C242.274 257.52 242.109 256.837 241.778 256.272C241.447 255.696 241.005 255.253 240.45 254.944C239.906 254.635 239.298 254.48 238.626 254.48C238.018 254.48 237.479 254.635 237.01 254.944C236.551 255.253 236.189 255.696 235.922 256.272C235.666 256.837 235.538 257.52 235.538 258.32C235.538 259.109 235.666 259.792 235.922 260.368C236.189 260.944 236.551 261.387 237.01 261.696C237.479 262.005 238.018 262.16 238.626 262.16C239.298 262.16 239.906 262.005 240.45 261.696C241.005 261.387 241.447 260.944 241.778 260.368C242.109 259.792 242.274 259.109 242.274 258.32ZM240.978 258.32C240.978 258.885 240.861 259.365 240.626 259.76C240.402 260.155 240.098 260.453 239.714 260.656C239.341 260.859 238.925 260.96 238.466 260.96C238.093 260.96 237.725 260.859 237.362 260.656C236.999 260.453 236.701 260.155 236.466 259.76C236.231 259.365 236.114 258.885 236.114 258.32C236.114 257.755 236.231 257.275 236.466 256.88C236.701 256.485 236.999 256.187 237.362 255.984C237.725 255.781 238.093 255.68 238.466 255.68C238.925 255.68 239.341 255.781 239.714 255.984C240.098 256.187 240.402 256.485 240.626 256.88C240.861 257.275 240.978 257.755 240.978 258.32ZM243.399 258.32C243.399 259.056 243.564 259.717 243.895 260.304C244.236 260.88 244.695 261.333 245.271 261.664C245.847 261.995 246.492 262.16 247.207 262.16C247.932 262.16 248.578 261.995 249.143 261.664C249.719 261.333 250.172 260.88 250.503 260.304C250.844 259.717 251.015 259.056 251.015 258.32C251.015 257.573 250.844 256.912 250.503 256.336C250.172 255.76 249.719 255.307 249.143 254.976C248.578 254.645 247.932 254.48 247.207 254.48C246.492 254.48 245.847 254.645 245.271 254.976C244.695 255.307 244.236 255.76 243.895 256.336C243.564 256.912 243.399 257.573 243.399 258.32ZM244.695 258.32C244.695 257.808 244.802 257.355 245.015 256.96C245.239 256.555 245.538 256.24 245.911 256.016C246.295 255.792 246.727 255.68 247.207 255.68C247.687 255.68 248.114 255.792 248.487 256.016C248.871 256.24 249.17 256.555 249.383 256.96C249.607 257.355 249.719 257.808 249.719 258.32C249.719 258.832 249.607 259.285 249.383 259.68C249.17 260.075 248.871 260.389 248.487 260.624C248.114 260.848 247.687 260.96 247.207 260.96C246.727 260.96 246.295 260.848 245.911 260.624C245.538 260.389 245.239 260.075 245.015 259.68C244.802 259.285 244.695 258.832 244.695 258.32ZM253.525 258.16V258.832H255.653C255.899 258.832 256.107 258.859 256.277 258.912C256.459 258.955 256.603 259.024 256.709 259.12C256.827 259.216 256.912 259.323 256.965 259.44C257.029 259.557 257.061 259.691 257.061 259.84C257.061 260.128 256.944 260.373 256.709 260.576C256.485 260.779 256.133 260.88 255.653 260.88H253.525V262H255.973C256.816 262 257.419 261.808 257.781 261.424C258.155 261.029 258.341 260.555 258.341 260C258.341 259.52 258.224 259.147 257.989 258.88C257.755 258.613 257.435 258.427 257.029 258.32C256.624 258.213 256.165 258.16 255.653 258.16H253.525ZM253.525 258.48H255.493C255.952 258.48 256.368 258.416 256.741 258.288C257.125 258.149 257.435 257.947 257.669 257.68C257.904 257.403 258.021 257.056 258.021 256.64C258.021 256.16 257.904 255.776 257.669 255.488C257.435 255.189 257.125 254.976 256.741 254.848C256.368 254.709 255.952 254.64 255.493 254.64H253.525V255.76H255.493C255.877 255.76 256.181 255.851 256.405 256.032C256.629 256.203 256.741 256.432 256.741 256.72C256.741 256.859 256.709 256.992 256.645 257.12C256.592 257.237 256.512 257.344 256.405 257.44C256.299 257.536 256.165 257.611 256.005 257.664C255.856 257.707 255.685 257.728 255.493 257.728H253.525V258.48ZM252.773 254.64V262H254.053V254.64H252.773ZM260.599 259.84C260.599 259.541 260.669 259.285 260.807 259.072C260.946 258.859 261.154 258.693 261.431 258.576C261.719 258.459 262.077 258.4 262.503 258.4C262.973 258.4 263.394 258.464 263.767 258.592C264.141 258.709 264.509 258.896 264.871 259.152V258.4C264.797 258.304 264.658 258.181 264.455 258.032C264.253 257.872 263.981 257.733 263.639 257.616C263.309 257.488 262.909 257.424 262.439 257.424C261.799 257.424 261.245 257.525 260.775 257.728C260.306 257.92 259.943 258.197 259.687 258.56C259.431 258.923 259.303 259.365 259.303 259.888C259.303 260.389 259.415 260.811 259.639 261.152C259.874 261.483 260.183 261.733 260.567 261.904C260.951 262.075 261.373 262.16 261.831 262.16C262.343 262.16 262.807 262.075 263.223 261.904C263.639 261.723 263.97 261.467 264.215 261.136C264.471 260.795 264.599 260.389 264.599 259.92L264.343 259.12C264.343 259.579 264.247 259.947 264.055 260.224C263.874 260.501 263.618 260.704 263.287 260.832C262.957 260.96 262.578 261.024 262.151 261.024C261.863 261.024 261.602 260.981 261.367 260.896C261.133 260.8 260.946 260.667 260.807 260.496C260.669 260.315 260.599 260.096 260.599 259.84ZM260.599 256.368C260.717 256.283 260.877 256.181 261.079 256.064C261.293 255.936 261.543 255.829 261.831 255.744C262.119 255.648 262.439 255.6 262.791 255.6C263.197 255.6 263.554 255.696 263.863 255.888C264.183 256.069 264.343 256.347 264.343 256.72V262H265.623V256.72C265.623 256.24 265.501 255.835 265.255 255.504C265.021 255.173 264.69 254.923 264.263 254.752C263.847 254.571 263.357 254.48 262.791 254.48C262.13 254.48 261.565 254.581 261.095 254.784C260.626 254.987 260.253 255.189 259.975 255.392L260.599 256.368ZM266.669 254.64V255.84H270.989V254.64H266.669ZM268.189 254.96V262H269.469V254.96H268.189ZM272.273 254.64V262H273.553V254.64H272.273ZM273.025 258.544H275.313C275.783 258.544 276.135 258.645 276.369 258.848C276.604 259.051 276.721 259.339 276.721 259.712C276.721 259.957 276.668 260.171 276.561 260.352C276.455 260.523 276.295 260.656 276.081 260.752C275.879 260.837 275.623 260.88 275.313 260.88H273.025V262H275.313C275.825 262 276.284 261.92 276.689 261.76C277.095 261.6 277.415 261.349 277.649 261.008C277.884 260.667 278.001 260.235 278.001 259.712C278.001 258.923 277.74 258.347 277.217 257.984C276.705 257.611 276.071 257.424 275.313 257.424H273.025V258.544Z" fill="white"/>
<path d="M29.6013 204.328L32.7213 212.52H34.1613L29.6013 201.24L25.0413 212.52H26.4813L29.6013 204.328ZM34.0813 213V214.76H35.2813V211.72H23.9213V214.76H25.1213V213H34.0813ZM36.5601 209.32C36.5601 210.056 36.7254 210.717 37.0561 211.304C37.3974 211.88 37.8561 212.333 38.4321 212.664C39.0081 212.995 39.6534 213.16 40.3681 213.16C41.0934 213.16 41.7387 212.995 42.3041 212.664C42.8801 212.333 43.3334 211.88 43.6641 211.304C44.0054 210.717 44.1761 210.056 44.1761 209.32C44.1761 208.573 44.0054 207.912 43.6641 207.336C43.3334 206.76 42.8801 206.307 42.3041 205.976C41.7387 205.645 41.0934 205.48 40.3681 205.48C39.6534 205.48 39.0081 205.645 38.4321 205.976C37.8561 206.307 37.3974 206.76 37.0561 207.336C36.7254 207.912 36.5601 208.573 36.5601 209.32ZM37.8561 209.32C37.8561 208.808 37.9627 208.355 38.1761 207.96C38.4001 207.555 38.6987 207.24 39.0721 207.016C39.4561 206.792 39.8881 206.68 40.3681 206.68C40.8481 206.68 41.2747 206.792 41.6481 207.016C42.0321 207.24 42.3307 207.555 42.5441 207.96C42.7681 208.355 42.8801 208.808 42.8801 209.32C42.8801 209.832 42.7681 210.285 42.5441 210.68C42.3307 211.075 42.0321 211.389 41.6481 211.624C41.2747 211.848 40.8481 211.96 40.3681 211.96C39.8881 211.96 39.4561 211.848 39.0721 211.624C38.6987 211.389 38.4001 211.075 38.1761 210.68C37.9627 210.285 37.8561 209.832 37.8561 209.32ZM47.1345 216.52V205.64H45.8545V216.52H47.1345ZM53.2945 209.32C53.2945 208.52 53.1291 207.837 52.7985 207.272C52.4678 206.696 52.0251 206.253 51.4705 205.944C50.9265 205.635 50.3185 205.48 49.6465 205.48C49.0385 205.48 48.4998 205.635 48.0305 205.944C47.5718 206.253 47.2091 206.696 46.9425 207.272C46.6865 207.837 46.5585 208.52 46.5585 209.32C46.5585 210.109 46.6865 210.792 46.9425 211.368C47.2091 211.944 47.5718 212.387 48.0305 212.696C48.4998 213.005 49.0385 213.16 49.6465 213.16C50.3185 213.16 50.9265 213.005 51.4705 212.696C52.0251 212.387 52.4678 211.944 52.7985 211.368C53.1291 210.792 53.2945 210.109 53.2945 209.32ZM51.9985 209.32C51.9985 209.885 51.8811 210.365 51.6465 210.76C51.4225 211.155 51.1185 211.453 50.7345 211.656C50.3611 211.859 49.9451 211.96 49.4865 211.96C49.1131 211.96 48.7451 211.859 48.3825 211.656C48.0198 211.453 47.7211 211.155 47.4865 210.76C47.2518 210.365 47.1345 209.885 47.1345 209.32C47.1345 208.755 47.2518 208.275 47.4865 207.88C47.7211 207.485 48.0198 207.187 48.3825 206.984C48.7451 206.781 49.1131 206.68 49.4865 206.68C49.9451 206.68 50.3611 206.781 50.7345 206.984C51.1185 207.187 51.4225 207.485 51.6465 207.88C51.8811 208.275 51.9985 208.755 51.9985 209.32ZM55.6355 210.84C55.6355 210.541 55.7048 210.285 55.8435 210.072C55.9821 209.859 56.1901 209.693 56.4675 209.576C56.7555 209.459 57.1128 209.4 57.5395 209.4C58.0088 209.4 58.4301 209.464 58.8035 209.592C59.1768 209.709 59.5448 209.896 59.9075 210.152V209.4C59.8328 209.304 59.6941 209.181 59.4915 209.032C59.2888 208.872 59.0168 208.733 58.6755 208.616C58.3448 208.488 57.9448 208.424 57.4755 208.424C56.8355 208.424 56.2808 208.525 55.8115 208.728C55.3421 208.92 54.9795 209.197 54.7235 209.56C54.4675 209.923 54.3395 210.365 54.3395 210.888C54.3395 211.389 54.4515 211.811 54.6755 212.152C54.9101 212.483 55.2195 212.733 55.6035 212.904C55.9875 213.075 56.4088 213.16 56.8675 213.16C57.3795 213.16 57.8435 213.075 58.2595 212.904C58.6755 212.723 59.0061 212.467 59.2515 212.136C59.5075 211.795 59.6355 211.389 59.6355 210.92L59.3795 210.12C59.3795 210.579 59.2835 210.947 59.0915 211.224C58.9101 211.501 58.6541 211.704 58.3235 211.832C57.9928 211.96 57.6141 212.024 57.1875 212.024C56.8995 212.024 56.6381 211.981 56.4035 211.896C56.1688 211.8 55.9821 211.667 55.8435 211.496C55.7048 211.315 55.6355 211.096 55.6355 210.84ZM55.6355 207.368C55.7528 207.283 55.9128 207.181 56.1155 207.064C56.3288 206.936 56.5795 206.829 56.8675 206.744C57.1555 206.648 57.4755 206.6 57.8275 206.6C58.2328 206.6 58.5901 206.696 58.8995 206.888C59.2195 207.069 59.3795 207.347 59.3795 207.72V213H60.6595V207.72C60.6595 207.24 60.5368 206.835 60.2915 206.504C60.0568 206.173 59.7261 205.923 59.2995 205.752C58.8835 205.571 58.3928 205.48 57.8275 205.48C57.1661 205.48 56.6008 205.581 56.1315 205.784C55.6621 205.987 55.2888 206.189 55.0115 206.392L55.6355 207.368ZM65.9931 206.68C66.4731 206.68 66.8997 206.792 67.2731 207.016C67.6571 207.24 67.9557 207.555 68.1691 207.96C68.3931 208.355 68.5051 208.808 68.5051 209.32C68.5051 209.832 68.3931 210.285 68.1691 210.68C67.9557 211.075 67.6571 211.389 67.2731 211.624C66.8997 211.848 66.4731 211.96 65.9931 211.96C65.5131 211.96 65.0811 211.848 64.6971 211.624C64.3237 211.389 64.0251 211.075 63.8011 210.68C63.5771 210.285 63.4651 209.832 63.4651 209.32L62.1851 208.36C62.1851 209.416 62.3504 210.301 62.6811 211.016C63.0224 211.731 63.4811 212.269 64.0571 212.632C64.6331 212.984 65.2784 213.16 65.9931 213.16C66.7184 213.16 67.3637 212.995 67.9291 212.664C68.5051 212.333 68.9584 211.88 69.2891 211.304C69.6304 210.717 69.8011 210.056 69.8011 209.32C69.8011 208.573 69.6304 207.912 69.2891 207.336C68.9584 206.76 68.5051 206.307 67.9291 205.976C67.3637 205.645 66.7184 205.48 65.9931 205.48V206.68ZM62.8891 209.32H63.4651C63.4651 208.893 63.5397 208.52 63.6891 208.2C63.8491 207.869 64.0517 207.592 64.2971 207.368C64.5531 207.144 64.8304 206.973 65.1291 206.856C65.4277 206.739 65.7157 206.68 65.9931 206.68V205.48C65.5344 205.48 65.1131 205.571 64.7291 205.752C64.3557 205.923 64.0304 206.173 63.7531 206.504C63.4757 206.835 63.2624 207.24 63.1131 207.72C62.9637 208.189 62.8891 208.723 62.8891 209.32ZM62.1851 208.36L63.3051 209.208V207.56C63.3051 207.027 63.3744 206.493 63.5131 205.96C63.6517 205.416 63.9024 204.931 64.2651 204.504C64.6384 204.077 65.1557 203.757 65.8171 203.544C66.4037 203.352 66.9264 203.112 67.3851 202.824C67.8544 202.536 68.2331 202.2 68.5211 201.816C68.8091 201.421 68.9797 200.989 69.0331 200.52H67.7691C67.6944 200.904 67.4757 201.272 67.1131 201.624C66.7611 201.965 66.2224 202.259 65.4971 202.504C64.6437 202.792 63.9717 203.208 63.4811 203.752C63.0011 204.285 62.6651 204.936 62.4731 205.704C62.2811 206.472 62.1851 207.357 62.1851 208.36ZM70.9195 209.32C70.9195 210.056 71.0848 210.717 71.4155 211.304C71.7568 211.88 72.2155 212.333 72.7915 212.664C73.3675 212.995 74.0128 213.16 74.7275 213.16C75.4528 213.16 76.0981 212.995 76.6635 212.664C77.2395 212.333 77.6928 211.88 78.0235 211.304C78.3648 210.717 78.5355 210.056 78.5355 209.32C78.5355 208.573 78.3648 207.912 78.0235 207.336C77.6928 206.76 77.2395 206.307 76.6635 205.976C76.0981 205.645 75.4528 205.48 74.7275 205.48C74.0128 205.48 73.3675 205.645 72.7915 205.976C72.2155 206.307 71.7568 206.76 71.4155 207.336C71.0848 207.912 70.9195 208.573 70.9195 209.32ZM72.2155 209.32C72.2155 208.808 72.3221 208.355 72.5355 207.96C72.7595 207.555 73.0581 207.24 73.4315 207.016C73.8155 206.792 74.2475 206.68 74.7275 206.68C75.2075 206.68 75.6341 206.792 76.0075 207.016C76.3915 207.24 76.6901 207.555 76.9035 207.96C77.1275 208.355 77.2395 208.808 77.2395 209.32C77.2395 209.832 77.1275 210.285 76.9035 210.68C76.6901 211.075 76.3915 211.389 76.0075 211.624C75.6341 211.848 75.2075 211.96 74.7275 211.96C74.2475 211.96 73.8155 211.848 73.4315 211.624C73.0581 211.389 72.7595 211.075 72.5355 210.68C72.3221 210.285 72.2155 209.832 72.2155 209.32ZM79.1738 205.64V206.84H83.4938V205.64H79.1738ZM80.6938 205.96V213H81.9738V205.96H80.6938ZM85.3542 210.84C85.3542 210.541 85.4235 210.285 85.5622 210.072C85.7009 209.859 85.9089 209.693 86.1862 209.576C86.4742 209.459 86.8315 209.4 87.2582 209.4C87.7275 209.4 88.1489 209.464 88.5222 209.592C88.8955 209.709 89.2635 209.896 89.6262 210.152V209.4C89.5515 209.304 89.4129 209.181 89.2102 209.032C89.0075 208.872 88.7355 208.733 88.3942 208.616C88.0635 208.488 87.6635 208.424 87.1942 208.424C86.5542 208.424 85.9995 208.525 85.5302 208.728C85.0609 208.92 84.6982 209.197 84.4422 209.56C84.1862 209.923 84.0582 210.365 84.0582 210.888C84.0582 211.389 84.1702 211.811 84.3942 212.152C84.6289 212.483 84.9382 212.733 85.3222 212.904C85.7062 213.075 86.1275 213.16 86.5862 213.16C87.0982 213.16 87.5622 213.075 87.9782 212.904C88.3942 212.723 88.7249 212.467 88.9702 212.136C89.2262 211.795 89.3542 211.389 89.3542 210.92L89.0982 210.12C89.0982 210.579 89.0022 210.947 88.8102 211.224C88.6289 211.501 88.3729 211.704 88.0422 211.832C87.7115 211.96 87.3329 212.024 86.9062 212.024C86.6182 212.024 86.3569 211.981 86.1222 211.896C85.8875 211.8 85.7009 211.667 85.5622 211.496C85.4235 211.315 85.3542 211.096 85.3542 210.84ZM85.3542 207.368C85.4715 207.283 85.6315 207.181 85.8342 207.064C86.0475 206.936 86.2982 206.829 86.5862 206.744C86.8742 206.648 87.1942 206.6 87.5462 206.6C87.9515 206.6 88.3089 206.696 88.6182 206.888C88.9382 207.069 89.0982 207.347 89.0982 207.72V213H90.3782V207.72C90.3782 207.24 90.2555 206.835 90.0102 206.504C89.7755 206.173 89.4449 205.923 89.0182 205.752C88.6022 205.571 88.1115 205.48 87.5462 205.48C86.8849 205.48 86.3195 205.581 85.8502 205.784C85.3809 205.987 85.0075 206.189 84.7302 206.392L85.3542 207.368ZM91.4238 205.64V206.84H95.7438V205.64H91.4238ZM92.9438 205.96V213H94.2238V205.96H92.9438ZM97.0282 205.64V213H98.3082V205.64H97.0282ZM97.7802 209.544H100.068C100.538 209.544 100.89 209.645 101.124 209.848C101.359 210.051 101.476 210.339 101.476 210.712C101.476 210.957 101.423 211.171 101.316 211.352C101.21 211.523 101.05 211.656 100.836 211.752C100.634 211.837 100.378 211.88 100.068 211.88H97.7802V213H100.068C100.58 213 101.039 212.92 101.444 212.76C101.85 212.6 102.17 212.349 102.404 212.008C102.639 211.667 102.756 211.235 102.756 210.712C102.756 209.923 102.495 209.347 101.972 208.984C101.46 208.611 100.826 208.424 100.068 208.424H97.7802V209.544ZM109.479 205.64V213H110.759V205.64H109.479ZM113.479 205.64L110.279 208.68L113.799 213H115.399L111.879 208.68L115.079 205.64H113.479ZM115.732 209.32C115.732 210.056 115.897 210.717 116.228 211.304C116.569 211.88 117.028 212.333 117.604 212.664C118.18 212.995 118.825 213.16 119.54 213.16C120.265 213.16 120.911 212.995 121.476 212.664C122.052 212.333 122.505 211.88 122.836 211.304C123.177 210.717 123.348 210.056 123.348 209.32C123.348 208.573 123.177 207.912 122.836 207.336C122.505 206.76 122.052 206.307 121.476 205.976C120.911 205.645 120.265 205.48 119.54 205.48C118.825 205.48 118.18 205.645 117.604 205.976C117.028 206.307 116.569 206.76 116.228 207.336C115.897 207.912 115.732 208.573 115.732 209.32ZM117.028 209.32C117.028 208.808 117.135 208.355 117.348 207.96C117.572 207.555 117.871 207.24 118.244 207.016C118.628 206.792 119.06 206.68 119.54 206.68C120.02 206.68 120.447 206.792 120.82 207.016C121.204 207.24 121.503 207.555 121.716 207.96C121.94 208.355 122.052 208.808 122.052 209.32C122.052 209.832 121.94 210.285 121.716 210.68C121.503 211.075 121.204 211.389 120.82 211.624C120.447 211.848 120.02 211.96 119.54 211.96C119.06 211.96 118.628 211.848 118.244 211.624C117.871 211.389 117.572 211.075 117.348 210.68C117.135 210.285 117.028 209.832 117.028 209.32ZM128.309 207.848L130.469 212.52H131.909L128.309 205.08L124.709 212.52H126.149L128.309 207.848ZM131.589 213V214.44H132.869V211.8H123.749V214.44H125.109V213H131.589Z" fill="white"/>
<path d="M179.889 154.08V164H181.249V152.8H172.369V164H173.729V154.08H179.889ZM184.926 167.52V156.64H183.646V167.52H184.926ZM191.086 160.32C191.086 159.52 190.921 158.837 190.59 158.272C190.26 157.696 189.817 157.253 189.262 156.944C188.718 156.635 188.11 156.48 187.438 156.48C186.83 156.48 186.292 156.635 185.822 156.944C185.364 157.253 185.001 157.696 184.734 158.272C184.478 158.837 184.35 159.52 184.35 160.32C184.35 161.109 184.478 161.792 184.734 162.368C185.001 162.944 185.364 163.387 185.822 163.696C186.292 164.005 186.83 164.16 187.438 164.16C188.11 164.16 188.718 164.005 189.262 163.696C189.817 163.387 190.26 162.944 190.59 162.368C190.921 161.792 191.086 161.109 191.086 160.32ZM189.79 160.32C189.79 160.885 189.673 161.365 189.438 161.76C189.214 162.155 188.91 162.453 188.526 162.656C188.153 162.859 187.737 162.96 187.278 162.96C186.905 162.96 186.537 162.859 186.174 162.656C185.812 162.453 185.513 162.155 185.278 161.76C185.044 161.365 184.926 160.885 184.926 160.32C184.926 159.755 185.044 159.275 185.278 158.88C185.513 158.485 185.812 158.187 186.174 157.984C186.537 157.781 186.905 157.68 187.278 157.68C187.737 157.68 188.153 157.781 188.526 157.984C188.91 158.187 189.214 158.485 189.438 158.88C189.673 159.275 189.79 159.755 189.79 160.32ZM192.211 160.32C192.211 161.056 192.377 161.717 192.707 162.304C193.049 162.88 193.507 163.333 194.083 163.664C194.659 163.995 195.305 164.16 196.019 164.16C196.745 164.16 197.39 163.995 197.955 163.664C198.531 163.333 198.985 162.88 199.315 162.304C199.657 161.717 199.827 161.056 199.827 160.32C199.827 159.573 199.657 158.912 199.315 158.336C198.985 157.76 198.531 157.307 197.955 156.976C197.39 156.645 196.745 156.48 196.019 156.48C195.305 156.48 194.659 156.645 194.083 156.976C193.507 157.307 193.049 157.76 192.707 158.336C192.377 158.912 192.211 159.573 192.211 160.32ZM193.507 160.32C193.507 159.808 193.614 159.355 193.827 158.96C194.051 158.555 194.35 158.24 194.723 158.016C195.107 157.792 195.539 157.68 196.019 157.68C196.499 157.68 196.926 157.792 197.299 158.016C197.683 158.24 197.982 158.555 198.195 158.96C198.419 159.355 198.531 159.808 198.531 160.32C198.531 160.832 198.419 161.285 198.195 161.68C197.982 162.075 197.683 162.389 197.299 162.624C196.926 162.848 196.499 162.96 196.019 162.96C195.539 162.96 195.107 162.848 194.723 162.624C194.35 162.389 194.051 162.075 193.827 161.68C193.614 161.285 193.507 160.832 193.507 160.32ZM202.338 160.16V160.832H204.466C204.711 160.832 204.919 160.859 205.09 160.912C205.271 160.955 205.415 161.024 205.522 161.12C205.639 161.216 205.724 161.323 205.778 161.44C205.842 161.557 205.874 161.691 205.874 161.84C205.874 162.128 205.756 162.373 205.522 162.576C205.298 162.779 204.946 162.88 204.466 162.88H202.338V164H204.786C205.628 164 206.231 163.808 206.594 163.424C206.967 163.029 207.154 162.555 207.154 162C207.154 161.52 207.036 161.147 206.802 160.88C206.567 160.613 206.247 160.427 205.842 160.32C205.436 160.213 204.978 160.16 204.466 160.16H202.338ZM202.338 160.48H204.306C204.764 160.48 205.18 160.416 205.554 160.288C205.938 160.149 206.247 159.947 206.482 159.68C206.716 159.403 206.834 159.056 206.834 158.64C206.834 158.16 206.716 157.776 206.482 157.488C206.247 157.189 205.938 156.976 205.554 156.848C205.18 156.709 204.764 156.64 204.306 156.64H202.338V157.76H204.306C204.69 157.76 204.994 157.851 205.218 158.032C205.442 158.203 205.554 158.432 205.554 158.72C205.554 158.859 205.522 158.992 205.458 159.12C205.404 159.237 205.324 159.344 205.218 159.44C205.111 159.536 204.978 159.611 204.818 159.664C204.668 159.707 204.498 159.728 204.306 159.728H202.338V160.48ZM201.586 156.64V164H202.866V156.64H201.586ZM209.012 160.64H215.3C215.31 160.576 215.316 160.512 215.316 160.448C215.316 160.384 215.316 160.32 215.316 160.256C215.316 159.477 215.172 158.811 214.884 158.256C214.596 157.691 214.19 157.253 213.668 156.944C213.145 156.635 212.537 156.48 211.844 156.48C211.214 156.48 210.644 156.608 210.132 156.864C209.63 157.12 209.22 157.477 208.9 157.936C208.58 158.395 208.366 158.928 208.26 159.536C208.238 159.664 208.222 159.792 208.212 159.92C208.201 160.048 208.196 160.181 208.196 160.32C208.196 161.056 208.345 161.717 208.644 162.304C208.953 162.88 209.369 163.333 209.892 163.664C210.425 163.995 211.022 164.16 211.684 164.16C212.324 164.16 212.857 164.085 213.284 163.936C213.71 163.776 214.073 163.557 214.372 163.28C214.67 162.992 214.942 162.661 215.188 162.288L214.148 161.632C213.988 161.899 213.796 162.133 213.572 162.336C213.348 162.528 213.092 162.683 212.804 162.8C212.526 162.907 212.206 162.96 211.844 162.96C211.364 162.96 210.948 162.859 210.596 162.656C210.244 162.453 209.972 162.155 209.78 161.76C209.588 161.365 209.492 160.885 209.492 160.32L209.524 159.84C209.524 159.381 209.625 158.987 209.828 158.656C210.041 158.315 210.324 158.053 210.676 157.872C211.028 157.691 211.417 157.6 211.844 157.6C212.27 157.6 212.628 157.685 212.916 157.856C213.214 158.016 213.444 158.245 213.604 158.544C213.774 158.832 213.881 159.168 213.924 159.552H209.012V160.64ZM217.646 160.32C217.646 159.808 217.753 159.355 217.966 158.96C218.19 158.555 218.489 158.24 218.862 158.016C219.246 157.792 219.678 157.68 220.158 157.68C220.553 157.68 220.921 157.744 221.262 157.872C221.614 157.989 221.918 158.149 222.174 158.352C222.43 158.555 222.611 158.779 222.718 159.024V157.424C222.462 157.125 222.094 156.896 221.614 156.736C221.145 156.565 220.659 156.48 220.158 156.48C219.443 156.48 218.798 156.645 218.222 156.976C217.646 157.307 217.187 157.76 216.846 158.336C216.515 158.912 216.35 159.573 216.35 160.32C216.35 161.056 216.515 161.717 216.846 162.304C217.187 162.88 217.646 163.333 218.222 163.664C218.798 163.995 219.443 164.16 220.158 164.16C220.659 164.16 221.145 164.08 221.614 163.92C222.094 163.749 222.462 163.515 222.718 163.216V161.616C222.611 161.851 222.43 162.075 222.174 162.288C221.918 162.491 221.614 162.656 221.262 162.784C220.921 162.901 220.553 162.96 220.158 162.96C219.678 162.96 219.246 162.848 218.862 162.624C218.489 162.389 218.19 162.075 217.966 161.68C217.753 161.285 217.646 160.832 217.646 160.32ZM223.591 156.64V157.84H227.911V156.64H223.591ZM225.111 156.96V164H226.391V156.96H225.111ZM235.355 157.92L235.435 156.08L229.355 162.72L229.275 164.56L235.355 157.92ZM230.555 156.64H229.275V164.56L230.555 162.8V156.64ZM235.435 156.08L234.155 157.84V164H235.435V156.08ZM242.631 156.64V164H243.911V156.64H242.631ZM246.631 156.64L243.431 159.68L246.951 164H248.551L245.031 159.68L248.231 156.64H246.631ZM248.883 160.32C248.883 161.056 249.049 161.717 249.379 162.304C249.721 162.88 250.179 163.333 250.755 163.664C251.331 163.995 251.977 164.16 252.691 164.16C253.417 164.16 254.062 163.995 254.627 163.664C255.203 163.333 255.657 162.88 255.987 162.304C256.329 161.717 256.499 161.056 256.499 160.32C256.499 159.573 256.329 158.912 255.987 158.336C255.657 157.76 255.203 157.307 254.627 156.976C254.062 156.645 253.417 156.48 252.691 156.48C251.977 156.48 251.331 156.645 250.755 156.976C250.179 157.307 249.721 157.76 249.379 158.336C249.049 158.912 248.883 159.573 248.883 160.32ZM250.179 160.32C250.179 159.808 250.286 159.355 250.499 158.96C250.723 158.555 251.022 158.24 251.395 158.016C251.779 157.792 252.211 157.68 252.691 157.68C253.171 157.68 253.598 157.792 253.971 158.016C254.355 158.24 254.654 158.555 254.867 158.96C255.091 159.355 255.203 159.808 255.203 160.32C255.203 160.832 255.091 161.285 254.867 161.68C254.654 162.075 254.355 162.389 253.971 162.624C253.598 162.848 253.171 162.96 252.691 162.96C252.211 162.96 251.779 162.848 251.395 162.624C251.022 162.389 250.723 162.075 250.499 161.68C250.286 161.285 250.179 160.832 250.179 160.32ZM261.461 158.848L263.621 163.52H265.061L261.461 156.08L257.861 163.52H259.301L261.461 158.848ZM264.741 164V165.44H266.021V162.8H256.901V165.44H258.261V164H264.741ZM266.825 160.8H270.025V159.6H266.825V160.8ZM272.504 167.52V156.64H271.224V167.52H272.504ZM278.664 160.32C278.664 159.52 278.499 158.837 278.168 158.272C277.838 157.696 277.395 157.253 276.84 156.944C276.296 156.635 275.688 156.48 275.016 156.48C274.408 156.48 273.87 156.635 273.4 156.944C272.942 157.253 272.579 157.696 272.312 158.272C272.056 158.837 271.928 159.52 271.928 160.32C271.928 161.109 272.056 161.792 272.312 162.368C272.579 162.944 272.942 163.387 273.4 163.696C273.87 164.005 274.408 164.16 275.016 164.16C275.688 164.16 276.296 164.005 276.84 163.696C277.395 163.387 277.838 162.944 278.168 162.368C278.499 161.792 278.664 161.109 278.664 160.32ZM277.368 160.32C277.368 160.885 277.251 161.365 277.016 161.76C276.792 162.155 276.488 162.453 276.104 162.656C275.731 162.859 275.315 162.96 274.856 162.96C274.483 162.96 274.115 162.859 273.752 162.656C273.39 162.453 273.091 162.155 272.856 161.76C272.622 161.365 272.504 160.885 272.504 160.32C272.504 159.755 272.622 159.275 272.856 158.88C273.091 158.485 273.39 158.187 273.752 157.984C274.115 157.781 274.483 157.68 274.856 157.68C275.315 157.68 275.731 157.781 276.104 157.984C276.488 158.187 276.792 158.485 277.016 158.88C277.251 159.275 277.368 159.755 277.368 160.32ZM280.605 160.64H286.893C286.904 160.576 286.909 160.512 286.909 160.448C286.909 160.384 286.909 160.32 286.909 160.256C286.909 159.477 286.765 158.811 286.477 158.256C286.189 157.691 285.784 157.253 285.261 156.944C284.739 156.635 284.131 156.48 283.437 156.48C282.808 156.48 282.237 156.608 281.725 156.864C281.224 157.12 280.813 157.477 280.493 157.936C280.173 158.395 279.96 158.928 279.853 159.536C279.832 159.664 279.816 159.792 279.805 159.92C279.795 160.048 279.789 160.181 279.789 160.32C279.789 161.056 279.939 161.717 280.237 162.304C280.547 162.88 280.963 163.333 281.485 163.664C282.019 163.995 282.616 164.16 283.277 164.16C283.917 164.16 284.451 164.085 284.877 163.936C285.304 163.776 285.667 163.557 285.965 163.28C286.264 162.992 286.536 162.661 286.781 162.288L285.741 161.632C285.581 161.899 285.389 162.133 285.165 162.336C284.941 162.528 284.685 162.683 284.397 162.8C284.12 162.907 283.8 162.96 283.437 162.96C282.957 162.96 282.541 162.859 282.189 162.656C281.837 162.453 281.565 162.155 281.373 161.76C281.181 161.365 281.085 160.885 281.085 160.32L281.117 159.84C281.117 159.381 281.219 158.987 281.421 158.656C281.635 158.315 281.917 158.053 282.269 157.872C282.621 157.691 283.011 157.6 283.437 157.6C283.864 157.6 284.221 157.685 284.509 157.856C284.808 158.016 285.037 158.245 285.197 158.544C285.368 158.832 285.475 159.168 285.517 159.552H280.605V160.64ZM289.416 160.16V160.832H291.544C291.789 160.832 291.997 160.859 292.168 160.912C292.349 160.955 292.493 161.024 292.6 161.12C292.717 161.216 292.803 161.323 292.856 161.44C292.92 161.557 292.952 161.691 292.952 161.84C292.952 162.128 292.835 162.373 292.6 162.576C292.376 162.779 292.024 162.88 291.544 162.88H289.416V164H291.864C292.707 164 293.309 163.808 293.672 163.424C294.045 163.029 294.232 162.555 294.232 162C294.232 161.52 294.115 161.147 293.88 160.88C293.645 160.613 293.325 160.427 292.92 160.32C292.515 160.213 292.056 160.16 291.544 160.16H289.416ZM289.416 160.48H291.384C291.843 160.48 292.259 160.416 292.632 160.288C293.016 160.149 293.325 159.947 293.56 159.68C293.795 159.403 293.912 159.056 293.912 158.64C293.912 158.16 293.795 157.776 293.56 157.488C293.325 157.189 293.016 156.976 292.632 156.848C292.259 156.709 291.843 156.64 291.384 156.64H289.416V157.76H291.384C291.768 157.76 292.072 157.851 292.296 158.032C292.52 158.203 292.632 158.432 292.632 158.72C292.632 158.859 292.6 158.992 292.536 159.12C292.483 159.237 292.403 159.344 292.296 159.44C292.189 159.536 292.056 159.611 291.896 159.664C291.747 159.707 291.576 159.728 291.384 159.728H289.416V160.48ZM288.664 156.64V164H289.944V156.64H288.664ZM295.914 156.64V164H297.194V156.64H295.914ZM296.666 160.544H298.954C299.423 160.544 299.775 160.645 300.01 160.848C300.245 161.051 300.362 161.339 300.362 161.712C300.362 161.957 300.309 162.171 300.202 162.352C300.095 162.523 299.935 162.656 299.722 162.752C299.519 162.837 299.263 162.88 298.954 162.88H296.666V164H298.954C299.466 164 299.925 163.92 300.33 163.76C300.735 163.6 301.055 163.349 301.29 163.008C301.525 162.667 301.642 162.235 301.642 161.712C301.642 160.923 301.381 160.347 300.858 159.984C300.346 159.611 299.711 159.424 298.954 159.424H296.666V160.544ZM304.4 160.72H307.12V159.52H304.4V160.72ZM303.648 156.64V164H304.928V156.64H303.648ZM306.208 160.32C306.208 161.056 306.374 161.717 306.704 162.304C307.046 162.88 307.504 163.333 308.08 163.664C308.656 163.995 309.302 164.16 310.016 164.16C310.742 164.16 311.387 163.995 311.952 163.664C312.528 163.333 312.982 162.88 313.312 162.304C313.654 161.717 313.824 161.056 313.824 160.32C313.824 159.573 313.654 158.912 313.312 158.336C312.982 157.76 312.528 157.307 311.952 156.976C311.387 156.645 310.742 156.48 310.016 156.48C309.302 156.48 308.656 156.645 308.08 156.976C307.504 157.307 307.046 157.76 306.704 158.336C306.374 158.912 306.208 159.573 306.208 160.32ZM307.504 160.32C307.504 159.808 307.611 159.355 307.824 158.96C308.048 158.555 308.347 158.24 308.72 158.016C309.104 157.792 309.536 157.68 310.016 157.68C310.496 157.68 310.923 157.792 311.296 158.016C311.68 158.24 311.979 158.555 312.192 158.96C312.416 159.355 312.528 159.808 312.528 160.32C312.528 160.832 312.416 161.285 312.192 161.68C311.979 162.075 311.68 162.389 311.296 162.624C310.923 162.848 310.496 162.96 310.016 162.96C309.536 162.96 309.104 162.848 308.72 162.624C308.347 162.389 308.048 162.075 307.824 161.68C307.611 161.285 307.504 160.832 307.504 160.32Z" fill="white"/>
<path d="M42.6425 108.56H50.3225V107.28H42.6425V108.56ZM49.4105 102.8V114H50.7705V102.8H49.4105ZM41.8905 102.8V114H43.2505V102.8H41.8905ZM53.824 111.84C53.824 111.541 53.8933 111.285 54.032 111.072C54.1706 110.859 54.3786 110.693 54.656 110.576C54.944 110.459 55.3013 110.4 55.728 110.4C56.1973 110.4 56.6186 110.464 56.992 110.592C57.3653 110.709 57.7333 110.896 58.096 111.152V110.4C58.0213 110.304 57.8826 110.181 57.68 110.032C57.4773 109.872 57.2053 109.733 56.864 109.616C56.5333 109.488 56.1333 109.424 55.664 109.424C55.024 109.424 54.4693 109.525 54 109.728C53.5306 109.92 53.168 110.197 52.912 110.56C52.656 110.923 52.528 111.365 52.528 111.888C52.528 112.389 52.64 112.811 52.864 113.152C53.0986 113.483 53.408 113.733 53.792 113.904C54.176 114.075 54.5973 114.16 55.056 114.16C55.568 114.16 56.032 114.075 56.448 113.904C56.864 113.723 57.1946 113.467 57.44 113.136C57.696 112.795 57.824 112.389 57.824 111.92L57.568 111.12C57.568 111.579 57.472 111.947 57.28 112.224C57.0986 112.501 56.8426 112.704 56.512 112.832C56.1813 112.96 55.8026 113.024 55.376 113.024C55.088 113.024 54.8266 112.981 54.592 112.896C54.3573 112.8 54.1706 112.667 54.032 112.496C53.8933 112.315 53.824 112.096 53.824 111.84ZM53.824 108.368C53.9413 108.283 54.1013 108.181 54.304 108.064C54.5173 107.936 54.768 107.829 55.056 107.744C55.344 107.648 55.664 107.6 56.016 107.6C56.4213 107.6 56.7786 107.696 57.088 107.888C57.408 108.069 57.568 108.347 57.568 108.72V114H58.848V108.72C58.848 108.24 58.7253 107.835 58.48 107.504C58.2453 107.173 57.9146 106.923 57.488 106.752C57.072 106.571 56.5813 106.48 56.016 106.48C55.3546 106.48 54.7893 106.581 54.32 106.784C53.8506 106.987 53.4773 107.189 53.2 107.392L53.824 108.368ZM67.0136 106.64H61.0136V114H62.2936V107.84H65.7336V114H67.0136V106.64ZM75.5798 107.92L75.6598 106.08L69.5798 112.72L69.4998 114.56L75.5798 107.92ZM70.7798 106.64H69.4998V114.56L70.7798 112.8V106.64ZM75.6598 106.08L74.3798 107.84V114H75.6598V106.08ZM78.7146 110.32C78.7146 109.808 78.8213 109.355 79.0346 108.96C79.2586 108.555 79.5573 108.24 79.9306 108.016C80.3146 107.792 80.7466 107.68 81.2266 107.68C81.6213 107.68 81.9893 107.744 82.3306 107.872C82.6826 107.989 82.9866 108.149 83.2426 108.352C83.4986 108.555 83.6799 108.779 83.7866 109.024V107.424C83.5306 107.125 83.1626 106.896 82.6826 106.736C82.2133 106.565 81.7279 106.48 81.2266 106.48C80.5119 106.48 79.8666 106.645 79.2906 106.976C78.7146 107.307 78.2559 107.76 77.9146 108.336C77.5839 108.912 77.4186 109.573 77.4186 110.32C77.4186 111.056 77.5839 111.717 77.9146 112.304C78.2559 112.88 78.7146 113.333 79.2906 113.664C79.8666 113.995 80.5119 114.16 81.2266 114.16C81.7279 114.16 82.2133 114.08 82.6826 113.92C83.1626 113.749 83.5306 113.515 83.7866 113.216V111.616C83.6799 111.851 83.4986 112.075 83.2426 112.288C82.9866 112.491 82.6826 112.656 82.3306 112.784C81.9893 112.901 81.6213 112.96 81.2266 112.96C80.7466 112.96 80.3146 112.848 79.9306 112.624C79.5573 112.389 79.2586 112.075 79.0346 111.68C78.8213 111.285 78.7146 110.832 78.7146 110.32ZM86.3552 111.84C86.3552 111.541 86.4246 111.285 86.5632 111.072C86.7019 110.859 86.9099 110.693 87.1872 110.576C87.4752 110.459 87.8326 110.4 88.2592 110.4C88.7286 110.4 89.1499 110.464 89.5232 110.592C89.8966 110.709 90.2646 110.896 90.6272 111.152V110.4C90.5526 110.304 90.4139 110.181 90.2112 110.032C90.0086 109.872 89.7366 109.733 89.3952 109.616C89.0646 109.488 88.6646 109.424 88.1952 109.424C87.5552 109.424 87.0006 109.525 86.5312 109.728C86.0619 109.92 85.6992 110.197 85.4432 110.56C85.1872 110.923 85.0592 111.365 85.0592 111.888C85.0592 112.389 85.1712 112.811 85.3952 113.152C85.6299 113.483 85.9392 113.733 86.3232 113.904C86.7072 114.075 87.1286 114.16 87.5872 114.16C88.0992 114.16 88.5632 114.075 88.9792 113.904C89.3952 113.723 89.7259 113.467 89.9712 113.136C90.2272 112.795 90.3552 112.389 90.3552 111.92L90.0992 111.12C90.0992 111.579 90.0032 111.947 89.8112 112.224C89.6299 112.501 89.3739 112.704 89.0432 112.832C88.7126 112.96 88.3339 113.024 87.9072 113.024C87.6192 113.024 87.3579 112.981 87.1232 112.896C86.8886 112.8 86.7019 112.667 86.5632 112.496C86.4246 112.315 86.3552 112.096 86.3552 111.84ZM86.3552 108.368C86.4726 108.283 86.6326 108.181 86.8352 108.064C87.0486 107.936 87.2992 107.829 87.5872 107.744C87.8752 107.648 88.1952 107.6 88.5472 107.6C88.9526 107.6 89.3099 107.696 89.6192 107.888C89.9392 108.069 90.0992 108.347 90.0992 108.72V114H91.3792V108.72C91.3792 108.24 91.2566 107.835 91.0112 107.504C90.7766 107.173 90.4459 106.923 90.0192 106.752C89.6032 106.571 89.1126 106.48 88.5472 106.48C87.8859 106.48 87.3206 106.581 86.8512 106.784C86.3819 106.987 86.0086 107.189 85.7312 107.392L86.3552 108.368ZM92.4248 106.64V107.84H96.7448V106.64H92.4248ZM93.9448 106.96V114H95.2248V106.96H93.9448ZM98.0292 106.64V114H99.3092V106.64H98.0292ZM98.7812 110.544H101.069C101.539 110.544 101.891 110.645 102.125 110.848C102.36 111.051 102.477 111.339 102.477 111.712C102.477 111.957 102.424 112.171 102.317 112.352C102.211 112.523 102.051 112.656 101.837 112.752C101.635 112.837 101.379 112.88 101.069 112.88H98.7812V114H101.069C101.581 114 102.04 113.92 102.445 113.76C102.851 113.6 103.171 113.349 103.405 113.008C103.64 112.667 103.757 112.235 103.757 111.712C103.757 110.923 103.496 110.347 102.973 109.984C102.461 109.611 101.827 109.424 101.069 109.424H98.7812V110.544ZM110.48 106.64V114H111.76V106.64H110.48ZM114.48 106.64L111.28 109.68L114.8 114H116.4L112.88 109.68L116.08 106.64H114.48ZM116.733 110.32C116.733 111.056 116.898 111.717 117.229 112.304C117.57 112.88 118.029 113.333 118.605 113.664C119.181 113.995 119.826 114.16 120.541 114.16C121.266 114.16 121.912 113.995 122.477 113.664C123.053 113.333 123.506 112.88 123.837 112.304C124.178 111.717 124.349 111.056 124.349 110.32C124.349 109.573 124.178 108.912 123.837 108.336C123.506 107.76 123.053 107.307 122.477 106.976C121.912 106.645 121.266 106.48 120.541 106.48C119.826 106.48 119.181 106.645 118.605 106.976C118.029 107.307 117.57 107.76 117.229 108.336C116.898 108.912 116.733 109.573 116.733 110.32ZM118.029 110.32C118.029 109.808 118.136 109.355 118.349 108.96C118.573 108.555 118.872 108.24 119.245 108.016C119.629 107.792 120.061 107.68 120.541 107.68C121.021 107.68 121.448 107.792 121.821 108.016C122.205 108.24 122.504 108.555 122.717 108.96C122.941 109.355 123.053 109.808 123.053 110.32C123.053 110.832 122.941 111.285 122.717 111.68C122.504 112.075 122.205 112.389 121.821 112.624C121.448 112.848 121.021 112.96 120.541 112.96C120.061 112.96 119.629 112.848 119.245 112.624C118.872 112.389 118.573 112.075 118.349 111.68C118.136 111.285 118.029 110.832 118.029 110.32ZM129.31 108.848L131.47 113.52H132.91L129.31 106.08L125.71 113.52H127.15L129.31 108.848ZM132.59 114V115.44H133.87V112.8H124.75V115.44H126.11V114H132.59Z" fill="white"/>
<path d="M173.441 60.08H175.249C175.921 60.08 176.502 59.984 176.993 59.792C177.494 59.6 177.884 59.3173 178.161 58.944C178.438 58.5707 178.577 58.1227 178.577 57.6C178.577 56.96 178.438 56.4373 178.161 56.032C177.884 55.616 177.494 55.3067 176.993 55.104C176.502 54.9013 175.921 54.8 175.249 54.8H172.369V66H175.409C176.134 66 176.78 65.8827 177.345 65.648C177.921 65.4027 178.374 65.04 178.705 64.56C179.046 64.0693 179.217 63.456 179.217 62.72C179.217 62.208 179.121 61.7653 178.929 61.392C178.737 61.0187 178.465 60.7147 178.113 60.48C177.772 60.2347 177.372 60.0533 176.913 59.936C176.454 59.8187 175.953 59.76 175.409 59.76H173.441V60.512H175.409C175.772 60.512 176.102 60.56 176.401 60.656C176.7 60.7413 176.956 60.8747 177.169 61.056C177.393 61.2373 177.564 61.4613 177.681 61.728C177.798 61.9947 177.857 62.2987 177.857 62.64C177.857 63.0987 177.75 63.488 177.537 63.808C177.334 64.128 177.046 64.3733 176.673 64.544C176.31 64.7147 175.889 64.8 175.409 64.8H173.729V56H175.249C175.814 56 176.284 56.1493 176.657 56.448C177.03 56.736 177.217 57.1467 177.217 57.68C177.217 58.032 177.132 58.3307 176.961 58.576C176.79 58.8213 176.556 59.008 176.257 59.136C175.958 59.264 175.622 59.328 175.249 59.328H173.441V60.08ZM187.851 58.64V66H189.131V58.64H187.851ZM181.211 58.64V66H182.491V58.64H181.211ZM181.963 62.544H184.251C184.72 62.544 185.072 62.6453 185.307 62.848C185.541 63.0507 185.659 63.3387 185.659 63.712C185.659 63.9573 185.605 64.1707 185.499 64.352C185.392 64.5227 185.232 64.656 185.019 64.752C184.816 64.8373 184.56 64.88 184.251 64.88H181.963V66H184.251C184.763 66 185.221 65.92 185.627 65.76C186.032 65.6 186.352 65.3493 186.587 65.008C186.821 64.6667 186.939 64.2347 186.939 63.712C186.939 62.9227 186.677 62.3467 186.155 61.984C185.643 61.6107 185.008 61.424 184.251 61.424H181.963V62.544ZM194.691 59.68C195.171 59.68 195.598 59.792 195.971 60.016C196.355 60.24 196.654 60.5547 196.867 60.96C197.091 61.3547 197.203 61.808 197.203 62.32C197.203 62.832 197.091 63.2853 196.867 63.68C196.654 64.0747 196.355 64.3893 195.971 64.624C195.598 64.848 195.171 64.96 194.691 64.96C194.211 64.96 193.779 64.848 193.395 64.624C193.022 64.3893 192.723 64.0747 192.499 63.68C192.275 63.2853 192.163 62.832 192.163 62.32L190.883 61.36C190.883 62.416 191.049 63.3013 191.379 64.016C191.721 64.7307 192.179 65.2693 192.755 65.632C193.331 65.984 193.977 66.16 194.691 66.16C195.417 66.16 196.062 65.9947 196.627 65.664C197.203 65.3333 197.657 64.88 197.987 64.304C198.329 63.7173 198.499 63.056 198.499 62.32C198.499 61.5733 198.329 60.912 197.987 60.336C197.657 59.76 197.203 59.3067 196.627 58.976C196.062 58.6453 195.417 58.48 194.691 58.48V59.68ZM191.587 62.32H192.163C192.163 61.8933 192.238 61.52 192.387 61.2C192.547 60.8693 192.75 60.592 192.995 60.368C193.251 60.144 193.529 59.9733 193.827 59.856C194.126 59.7387 194.414 59.68 194.691 59.68V58.48C194.233 58.48 193.811 58.5707 193.427 58.752C193.054 58.9227 192.729 59.1733 192.451 59.504C192.174 59.8347 191.961 60.24 191.811 60.72C191.662 61.1893 191.587 61.7227 191.587 62.32ZM190.883 61.36L192.003 62.208V60.56C192.003 60.0267 192.073 59.4933 192.211 58.96C192.35 58.416 192.601 57.9307 192.963 57.504C193.337 57.0773 193.854 56.7573 194.515 56.544C195.102 56.352 195.625 56.112 196.083 55.824C196.553 55.536 196.931 55.2 197.219 54.816C197.507 54.4213 197.678 53.9893 197.731 53.52H196.467C196.393 53.904 196.174 54.272 195.811 54.624C195.459 54.9653 194.921 55.2587 194.195 55.504C193.342 55.792 192.67 56.208 192.179 56.752C191.699 57.2853 191.363 57.936 191.171 58.704C190.979 59.472 190.883 60.3573 190.883 61.36ZM201.458 69.52V58.64H200.178V69.52H201.458ZM207.618 62.32C207.618 61.52 207.452 60.8373 207.122 60.272C206.791 59.696 206.348 59.2533 205.794 58.944C205.25 58.6347 204.642 58.48 203.97 58.48C203.362 58.48 202.823 58.6347 202.354 58.944C201.895 59.2533 201.532 59.696 201.266 60.272C201.01 60.8373 200.882 61.52 200.882 62.32C200.882 63.1093 201.01 63.792 201.266 64.368C201.532 64.944 201.895 65.3867 202.354 65.696C202.823 66.0053 203.362 66.16 203.97 66.16C204.642 66.16 205.25 66.0053 205.794 65.696C206.348 65.3867 206.791 64.944 207.122 64.368C207.452 63.792 207.618 63.1093 207.618 62.32ZM206.322 62.32C206.322 62.8853 206.204 63.3653 205.97 63.76C205.746 64.1547 205.442 64.4533 205.058 64.656C204.684 64.8587 204.268 64.96 203.81 64.96C203.436 64.96 203.068 64.8587 202.706 64.656C202.343 64.4533 202.044 64.1547 201.81 63.76C201.575 63.3653 201.458 62.8853 201.458 62.32C201.458 61.7547 201.575 61.2747 201.81 60.88C202.044 60.4853 202.343 60.1867 202.706 59.984C203.068 59.7813 203.436 59.68 203.81 59.68C204.268 59.68 204.684 59.7813 205.058 59.984C205.442 60.1867 205.746 60.4853 205.97 60.88C206.204 61.2747 206.322 61.7547 206.322 62.32ZM209.959 63.84C209.959 63.5413 210.028 63.2853 210.167 63.072C210.305 62.8587 210.513 62.6933 210.791 62.576C211.079 62.4587 211.436 62.4 211.863 62.4C212.332 62.4 212.753 62.464 213.127 62.592C213.5 62.7093 213.868 62.896 214.231 63.152V62.4C214.156 62.304 214.017 62.1813 213.815 62.032C213.612 61.872 213.34 61.7333 212.999 61.616C212.668 61.488 212.268 61.424 211.799 61.424C211.159 61.424 210.604 61.5253 210.135 61.728C209.665 61.92 209.303 62.1973 209.047 62.56C208.791 62.9227 208.663 63.3653 208.663 63.888C208.663 64.3893 208.775 64.8107 208.999 65.152C209.233 65.4827 209.543 65.7333 209.927 65.904C210.311 66.0747 210.732 66.16 211.191 66.16C211.703 66.16 212.167 66.0747 212.583 65.904C212.999 65.7227 213.329 65.4667 213.575 65.136C213.831 64.7947 213.959 64.3893 213.959 63.92L213.703 63.12C213.703 63.5787 213.607 63.9467 213.415 64.224C213.233 64.5013 212.977 64.704 212.647 64.832C212.316 64.96 211.937 65.024 211.511 65.024C211.223 65.024 210.961 64.9813 210.727 64.896C210.492 64.8 210.305 64.6667 210.167 64.496C210.028 64.3147 209.959 64.096 209.959 63.84ZM209.959 60.368C210.076 60.2827 210.236 60.1813 210.439 60.064C210.652 59.936 210.903 59.8293 211.191 59.744C211.479 59.648 211.799 59.6 212.151 59.6C212.556 59.6 212.913 59.696 213.223 59.888C213.543 60.0693 213.703 60.3467 213.703 60.72V66H214.983V60.72C214.983 60.24 214.86 59.8347 214.615 59.504C214.38 59.1733 214.049 58.9227 213.623 58.752C213.207 58.5707 212.716 58.48 212.151 58.48C211.489 58.48 210.924 58.5813 210.455 58.784C209.985 58.9867 209.612 59.1893 209.335 59.392L209.959 60.368ZM216.028 58.64V59.84H220.348V58.64H216.028ZM217.548 58.96V66H218.828V58.96H217.548ZM221.633 58.64V66H222.913V58.64H221.633ZM222.385 62.544H224.673C225.142 62.544 225.494 62.6453 225.729 62.848C225.963 63.0507 226.081 63.3387 226.081 63.712C226.081 63.9573 226.027 64.1707 225.921 64.352C225.814 64.5227 225.654 64.656 225.441 64.752C225.238 64.8373 224.982 64.88 224.673 64.88H222.385V66H224.673C225.185 66 225.643 65.92 226.049 65.76C226.454 65.6 226.774 65.3493 227.009 65.008C227.243 64.6667 227.361 64.2347 227.361 63.712C227.361 62.9227 227.099 62.3467 226.577 61.984C226.065 61.6107 225.43 61.424 224.673 61.424H222.385V62.544ZM235.364 69.52V58.64H234.084V69.52H235.364ZM241.524 62.32C241.524 61.52 241.359 60.8373 241.028 60.272C240.697 59.696 240.255 59.2533 239.7 58.944C239.156 58.6347 238.548 58.48 237.876 58.48C237.268 58.48 236.729 58.6347 236.26 58.944C235.801 59.2533 235.439 59.696 235.172 60.272C234.916 60.8373 234.788 61.52 234.788 62.32C234.788 63.1093 234.916 63.792 235.172 64.368C235.439 64.944 235.801 65.3867 236.26 65.696C236.729 66.0053 237.268 66.16 237.876 66.16C238.548 66.16 239.156 66.0053 239.7 65.696C240.255 65.3867 240.697 64.944 241.028 64.368C241.359 63.792 241.524 63.1093 241.524 62.32ZM240.228 62.32C240.228 62.8853 240.111 63.3653 239.876 63.76C239.652 64.1547 239.348 64.4533 238.964 64.656C238.591 64.8587 238.175 64.96 237.716 64.96C237.343 64.96 236.975 64.8587 236.612 64.656C236.249 64.4533 235.951 64.1547 235.716 63.76C235.481 63.3653 235.364 62.8853 235.364 62.32C235.364 61.7547 235.481 61.2747 235.716 60.88C235.951 60.4853 236.249 60.1867 236.612 59.984C236.975 59.7813 237.343 59.68 237.716 59.68C238.175 59.68 238.591 59.7813 238.964 59.984C239.348 60.1867 239.652 60.4853 239.876 60.88C240.111 61.2747 240.228 61.7547 240.228 62.32ZM243.465 62.64H249.753C249.764 62.576 249.769 62.512 249.769 62.448C249.769 62.384 249.769 62.32 249.769 62.256C249.769 61.4773 249.625 60.8107 249.337 60.256C249.049 59.6907 248.644 59.2533 248.121 58.944C247.598 58.6347 246.99 58.48 246.297 58.48C245.668 58.48 245.097 58.608 244.585 58.864C244.084 59.12 243.673 59.4773 243.353 59.936C243.033 60.3947 242.82 60.928 242.713 61.536C242.692 61.664 242.676 61.792 242.665 61.92C242.654 62.048 242.649 62.1813 242.649 62.32C242.649 63.056 242.798 63.7173 243.097 64.304C243.406 64.88 243.822 65.3333 244.345 65.664C244.878 65.9947 245.476 66.16 246.137 66.16C246.777 66.16 247.31 66.0853 247.737 65.936C248.164 65.776 248.526 65.5573 248.825 65.28C249.124 64.992 249.396 64.6613 249.641 64.288L248.601 63.632C248.441 63.8987 248.249 64.1333 248.025 64.336C247.801 64.528 247.545 64.6827 247.257 64.8C246.98 64.9067 246.66 64.96 246.297 64.96C245.817 64.96 245.401 64.8587 245.049 64.656C244.697 64.4533 244.425 64.1547 244.233 63.76C244.041 63.3653 243.945 62.8853 243.945 62.32L243.977 61.84C243.977 61.3813 244.078 60.9867 244.281 60.656C244.494 60.3147 244.777 60.0533 245.129 59.872C245.481 59.6907 245.87 59.6 246.297 59.6C246.724 59.6 247.081 59.6853 247.369 59.856C247.668 60.016 247.897 60.2453 248.057 60.544C248.228 60.832 248.334 61.168 248.377 61.552H243.465V62.64ZM257.203 64.8V58.64H255.923V64.8H252.803V58.64H251.523V66H261.603V58.64H260.323V64.8H257.203ZM264.184 62.64H270.472C270.482 62.576 270.488 62.512 270.488 62.448C270.488 62.384 270.488 62.32 270.488 62.256C270.488 61.4773 270.344 60.8107 270.056 60.256C269.768 59.6907 269.362 59.2533 268.84 58.944C268.317 58.6347 267.709 58.48 267.016 58.48C266.386 58.48 265.816 58.608 265.304 58.864C264.802 59.12 264.392 59.4773 264.072 59.936C263.752 60.3947 263.538 60.928 263.432 61.536C263.41 61.664 263.394 61.792 263.384 61.92C263.373 62.048 263.368 62.1813 263.368 62.32C263.368 63.056 263.517 63.7173 263.816 64.304C264.125 64.88 264.541 65.3333 265.064 65.664C265.597 65.9947 266.194 66.16 266.856 66.16C267.496 66.16 268.029 66.0853 268.456 65.936C268.882 65.776 269.245 65.5573 269.544 65.28C269.842 64.992 270.114 64.6613 270.36 64.288L269.32 63.632C269.16 63.8987 268.968 64.1333 268.744 64.336C268.52 64.528 268.264 64.6827 267.976 64.8C267.698 64.9067 267.378 64.96 267.016 64.96C266.536 64.96 266.12 64.8587 265.768 64.656C265.416 64.4533 265.144 64.1547 264.952 63.76C264.76 63.3653 264.664 62.8853 264.664 62.32L264.696 61.84C264.696 61.3813 264.797 60.9867 265 60.656C265.213 60.3147 265.496 60.0533 265.848 59.872C266.2 59.6907 266.589 59.6 267.016 59.6C267.442 59.6 267.8 59.6853 268.088 59.856C268.386 60.016 268.616 60.2453 268.776 60.544C268.946 60.832 269.053 61.168 269.096 61.552H264.184V62.64ZM272.994 62.72H278.434V61.52H272.994V62.72ZM277.602 58.64V66H278.882V58.64H277.602ZM272.242 58.64V66H273.522V58.64H272.242ZM287.449 59.92L287.529 58.08L281.449 64.72L281.369 66.56L287.449 59.92ZM282.649 58.64H281.369V66.56L282.649 64.8V58.64ZM287.529 58.08L286.249 59.84V66H287.529V58.08ZM290.184 62.64H296.472C296.482 62.576 296.488 62.512 296.488 62.448C296.488 62.384 296.488 62.32 296.488 62.256C296.488 61.4773 296.344 60.8107 296.056 60.256C295.768 59.6907 295.362 59.2533 294.84 58.944C294.317 58.6347 293.709 58.48 293.016 58.48C292.386 58.48 291.816 58.608 291.304 58.864C290.802 59.12 290.392 59.4773 290.072 59.936C289.752 60.3947 289.538 60.928 289.432 61.536C289.41 61.664 289.394 61.792 289.384 61.92C289.373 62.048 289.368 62.1813 289.368 62.32C289.368 63.056 289.517 63.7173 289.816 64.304C290.125 64.88 290.541 65.3333 291.064 65.664C291.597 65.9947 292.194 66.16 292.856 66.16C293.496 66.16 294.029 66.0853 294.456 65.936C294.882 65.776 295.245 65.5573 295.544 65.28C295.842 64.992 296.114 64.6613 296.36 64.288L295.32 63.632C295.16 63.8987 294.968 64.1333 294.744 64.336C294.52 64.528 294.264 64.6827 293.976 64.8C293.698 64.9067 293.378 64.96 293.016 64.96C292.536 64.96 292.12 64.8587 291.768 64.656C291.416 64.4533 291.144 64.1547 290.952 63.76C290.76 63.3653 290.664 62.8853 290.664 62.32L290.696 61.84C290.696 61.3813 290.797 60.9867 291 60.656C291.213 60.3147 291.496 60.0533 291.848 59.872C292.2 59.6907 292.589 59.6 293.016 59.6C293.442 59.6 293.8 59.6853 294.088 59.856C294.386 60.016 294.616 60.2453 294.776 60.544C294.946 60.832 295.053 61.168 295.096 61.552H290.184V62.64Z" fill="white"/>
<path d="M36.36 7.32L36.44 5.24L26.68 15.48L26.6 17.56L36.36 7.32ZM27.96 5.8H26.6V17.56L27.96 15.8V5.8ZM36.44 5.24L35.08 7V17H36.44V5.24ZM41.5343 13.32C42.377 13.32 43.033 13.144 43.5023 12.792C43.9823 12.44 44.2223 11.9973 44.2223 11.464C44.2223 11.1013 44.1103 10.7707 43.8863 10.472C43.673 10.1733 43.3743 9.93333 42.9903 9.752C42.6063 9.57067 42.1743 9.48 41.6943 9.48C41.1823 9.48 40.7236 9.58667 40.3183 9.8C39.913 10.0027 39.593 10.28 39.3583 10.632C39.1236 10.984 39.0063 11.368 39.0063 11.784H40.3023C40.3023 11.6133 40.3503 11.4427 40.4463 11.272C40.5423 11.0907 40.6916 10.9413 40.8943 10.824C41.1076 10.696 41.3743 10.632 41.6943 10.632C42.0783 10.632 42.377 10.7173 42.5903 10.888C42.8036 11.048 42.9103 11.272 42.9103 11.56C42.9103 11.8267 42.8036 12.056 42.5903 12.248C42.377 12.4293 42.025 12.52 41.5343 12.52V13.32ZM41.6623 17.16C42.185 17.16 42.665 17.0693 43.1023 16.888C43.5396 16.696 43.8863 16.4293 44.1423 16.088C44.409 15.736 44.5423 15.32 44.5423 14.84C44.5423 14.1467 44.2703 13.64 43.7263 13.32C43.1823 13 42.4516 12.84 41.5343 12.84V13.64C41.9076 13.64 42.2223 13.688 42.4783 13.784C42.745 13.88 42.9423 14.0187 43.0703 14.2C43.209 14.3813 43.2783 14.6 43.2783 14.856C43.2783 15.0907 43.2143 15.2987 43.0863 15.48C42.9583 15.6613 42.7716 15.8 42.5263 15.896C42.2916 15.992 42.0036 16.04 41.6623 16.04C41.1076 16.04 40.7076 15.9013 40.4623 15.624C40.217 15.3467 40.057 15.032 39.9823 14.68H38.6863C38.7716 15.3947 39.0703 15.9867 39.5823 16.456C40.105 16.9253 40.7983 17.16 41.6623 17.16ZM52.2194 9.64H50.7794L48.5074 15.336L49.0354 15.4L46.6994 9.64H45.1794L47.9954 15.96L45.9794 20.52H47.4194L52.2194 9.64ZM55.9063 14.76H58.4183V13.56H55.9063V14.76ZM57.5063 9.64V17H58.7863V9.64H57.5063ZM54.3063 9.64H53.0263V11.752C53.0263 12.4667 53.1116 13.048 53.2823 13.496C53.453 13.9333 53.7463 14.2533 54.1623 14.456C54.589 14.6587 55.1703 14.76 55.9063 14.76V13.56C55.501 13.56 55.181 13.5013 54.9463 13.384C54.7116 13.256 54.5463 13.0587 54.4503 12.792C54.3543 12.5253 54.3063 12.1787 54.3063 11.752V9.64ZM67.3519 10.92L67.4319 9.08L61.3519 15.72L61.2719 17.56L67.3519 10.92ZM62.5519 9.64H61.2719V17.56L62.5519 15.8V9.64ZM67.4319 9.08L66.1519 10.84V17H67.4319V9.08ZM68.7907 9.64V10.84H73.1107V9.64H68.7907ZM70.3107 9.96V17H71.5907V9.96H70.3107ZM74.395 9.64V17H75.675V9.64H74.395ZM75.147 13.544H77.435C77.9044 13.544 78.2564 13.6453 78.491 13.848C78.7257 14.0507 78.843 14.3387 78.843 14.712C78.843 14.9573 78.7897 15.1707 78.683 15.352C78.5764 15.5227 78.4164 15.656 78.203 15.752C78.0004 15.8373 77.7444 15.88 77.435 15.88H75.147V17H77.435C77.947 17 78.4057 16.92 78.811 16.76C79.2164 16.6 79.5364 16.3493 79.771 16.008C80.0057 15.6667 80.123 15.2347 80.123 14.712C80.123 13.9227 79.8617 13.3467 79.339 12.984C78.827 12.6107 78.1924 12.424 77.435 12.424H75.147V13.544ZM89.5343 13.32C90.377 13.32 91.033 13.144 91.5023 12.792C91.9823 12.44 92.2223 11.9973 92.2223 11.464C92.2223 11.1013 92.1103 10.7707 91.8863 10.472C91.673 10.1733 91.3743 9.93333 90.9903 9.752C90.6063 9.57067 90.1743 9.48 89.6943 9.48C89.1823 9.48 88.7236 9.58667 88.3183 9.8C87.913 10.0027 87.593 10.28 87.3583 10.632C87.1236 10.984 87.0063 11.368 87.0063 11.784H88.3023C88.3023 11.6133 88.3503 11.4427 88.4463 11.272C88.5423 11.0907 88.6916 10.9413 88.8943 10.824C89.1076 10.696 89.3743 10.632 89.6943 10.632C90.0783 10.632 90.377 10.7173 90.5903 10.888C90.8036 11.048 90.9103 11.272 90.9103 11.56C90.9103 11.8267 90.8036 12.056 90.5903 12.248C90.377 12.4293 90.025 12.52 89.5343 12.52V13.32ZM89.6623 17.16C90.185 17.16 90.665 17.0693 91.1023 16.888C91.5396 16.696 91.8863 16.4293 92.1423 16.088C92.409 15.736 92.5423 15.32 92.5423 14.84C92.5423 14.1467 92.2703 13.64 91.7263 13.32C91.1823 13 90.4516 12.84 89.5343 12.84V13.64C89.9076 13.64 90.2223 13.688 90.4783 13.784C90.745 13.88 90.9423 14.0187 91.0703 14.2C91.209 14.3813 91.2783 14.6 91.2783 14.856C91.2783 15.0907 91.2143 15.2987 91.0863 15.48C90.9583 15.6613 90.7716 15.8 90.5263 15.896C90.2916 15.992 90.0036 16.04 89.6623 16.04C89.1076 16.04 88.7076 15.9013 88.4623 15.624C88.217 15.3467 88.057 15.032 87.9823 14.68H86.6863C86.7716 15.3947 87.0703 15.9867 87.5823 16.456C88.105 16.9253 88.7983 17.16 89.6623 17.16ZM95.0335 14.84C95.0335 14.5413 95.1029 14.2853 95.2415 14.072C95.3802 13.8587 95.5882 13.6933 95.8655 13.576C96.1535 13.4587 96.5109 13.4 96.9375 13.4C97.4069 13.4 97.8282 13.464 98.2015 13.592C98.5749 13.7093 98.9429 13.896 99.3055 14.152V13.4C99.2309 13.304 99.0922 13.1813 98.8895 13.032C98.6869 12.872 98.4149 12.7333 98.0735 12.616C97.7429 12.488 97.3429 12.424 96.8735 12.424C96.2335 12.424 95.6789 12.5253 95.2095 12.728C94.7402 12.92 94.3775 13.1973 94.1215 13.56C93.8655 13.9227 93.7375 14.3653 93.7375 14.888C93.7375 15.3893 93.8495 15.8107 94.0735 16.152C94.3082 16.4827 94.6175 16.7333 95.0015 16.904C95.3855 17.0747 95.8069 17.16 96.2655 17.16C96.7775 17.16 97.2415 17.0747 97.6575 16.904C98.0735 16.7227 98.4042 16.4667 98.6495 16.136C98.9055 15.7947 99.0335 15.3893 99.0335 14.92L98.7775 14.12C98.7775 14.5787 98.6815 14.9467 98.4895 15.224C98.3082 15.5013 98.0522 15.704 97.7215 15.832C97.3909 15.96 97.0122 16.024 96.5855 16.024C96.2975 16.024 96.0362 15.9813 95.8015 15.896C95.5669 15.8 95.3802 15.6667 95.2415 15.496C95.1029 15.3147 95.0335 15.096 95.0335 14.84ZM95.0335 11.368C95.1509 11.2827 95.3109 11.1813 95.5135 11.064C95.7269 10.936 95.9775 10.8293 96.2655 10.744C96.5535 10.648 96.8735 10.6 97.2255 10.6C97.6309 10.6 97.9882 10.696 98.2975 10.888C98.6175 11.0693 98.7775 11.3467 98.7775 11.72V17H100.058V11.72C100.058 11.24 99.9349 10.8347 99.6895 10.504C99.4549 10.1733 99.1242 9.92267 98.6975 9.752C98.2815 9.57067 97.7909 9.48 97.2255 9.48C96.5642 9.48 95.9989 9.58133 95.5295 9.784C95.0602 9.98667 94.6869 10.1893 94.4095 10.392L95.0335 11.368ZM106.223 11.848L108.383 16.52H109.823L106.223 9.08L102.623 16.52H104.063L106.223 11.848ZM109.503 17V18.44H110.783V15.8H101.663V18.44H103.023V17H109.503ZM113.284 14.84C113.284 14.5413 113.353 14.2853 113.492 14.072C113.63 13.8587 113.838 13.6933 114.116 13.576C114.404 13.4587 114.761 13.4 115.188 13.4C115.657 13.4 116.078 13.464 116.452 13.592C116.825 13.7093 117.193 13.896 117.556 14.152V13.4C117.481 13.304 117.342 13.1813 117.14 13.032C116.937 12.872 116.665 12.7333 116.324 12.616C115.993 12.488 115.593 12.424 115.124 12.424C114.484 12.424 113.929 12.5253 113.46 12.728C112.99 12.92 112.628 13.1973 112.372 13.56C112.116 13.9227 111.988 14.3653 111.988 14.888C111.988 15.3893 112.1 15.8107 112.324 16.152C112.558 16.4827 112.868 16.7333 113.252 16.904C113.636 17.0747 114.057 17.16 114.516 17.16C115.028 17.16 115.492 17.0747 115.908 16.904C116.324 16.7227 116.654 16.4667 116.9 16.136C117.156 15.7947 117.284 15.3893 117.284 14.92L117.028 14.12C117.028 14.5787 116.932 14.9467 116.74 15.224C116.558 15.5013 116.302 15.704 115.972 15.832C115.641 15.96 115.262 16.024 114.836 16.024C114.548 16.024 114.286 15.9813 114.052 15.896C113.817 15.8 113.63 15.6667 113.492 15.496C113.353 15.3147 113.284 15.096 113.284 14.84ZM113.284 11.368C113.401 11.2827 113.561 11.1813 113.764 11.064C113.977 10.936 114.228 10.8293 114.516 10.744C114.804 10.648 115.124 10.6 115.476 10.6C115.881 10.6 116.238 10.696 116.548 10.888C116.868 11.0693 117.028 11.3467 117.028 11.72V17H118.308V11.72C118.308 11.24 118.185 10.8347 117.94 10.504C117.705 10.1733 117.374 9.92267 116.948 9.752C116.532 9.57067 116.041 9.48 115.476 9.48C114.814 9.48 114.249 9.58133 113.78 9.784C113.31 9.98667 112.937 10.1893 112.66 10.392L113.284 11.368ZM122.953 14.76H125.465V13.56H122.953V14.76ZM124.553 9.64V17H125.833V9.64H124.553ZM121.353 9.64H120.073V11.752C120.073 12.4667 120.159 13.048 120.329 13.496C120.5 13.9333 120.793 14.2533 121.209 14.456C121.636 14.6587 122.217 14.76 122.953 14.76V13.56C122.548 13.56 122.228 13.5013 121.993 13.384C121.759 13.256 121.593 13.0587 121.497 12.792C121.401 12.5253 121.353 12.1787 121.353 11.752V9.64ZM134.079 9.64H132.639L130.367 15.336L130.895 15.4L128.559 9.64H127.039L129.855 15.96L127.839 20.52H129.279L134.079 9.64Z" fill="white"/>
<path d="M172.369 348.8V360H173.729V348.8H172.369ZM173.121 350.08H175.409C176.134 350.08 176.721 350.256 177.169 350.608C177.628 350.949 177.857 351.467 177.857 352.16C177.857 352.843 177.628 353.36 177.169 353.712C176.721 354.064 176.134 354.24 175.409 354.24H173.121V355.52H175.409C176.134 355.52 176.78 355.387 177.345 355.12C177.921 354.843 178.374 354.453 178.705 353.952C179.046 353.44 179.217 352.843 179.217 352.16C179.217 351.467 179.046 350.869 178.705 350.368C178.374 349.867 177.921 349.483 177.345 349.216C176.78 348.939 176.134 348.8 175.409 348.8H173.121V350.08ZM181.146 357.84C181.146 357.541 181.215 357.285 181.354 357.072C181.493 356.859 181.701 356.693 181.978 356.576C182.266 356.459 182.623 356.4 183.05 356.4C183.519 356.4 183.941 356.464 184.314 356.592C184.687 356.709 185.055 356.896 185.418 357.152V356.4C185.343 356.304 185.205 356.181 185.002 356.032C184.799 355.872 184.527 355.733 184.186 355.616C183.855 355.488 183.455 355.424 182.986 355.424C182.346 355.424 181.791 355.525 181.322 355.728C180.853 355.92 180.49 356.197 180.234 356.56C179.978 356.923 179.85 357.365 179.85 357.888C179.85 358.389 179.962 358.811 180.186 359.152C180.421 359.483 180.73 359.733 181.114 359.904C181.498 360.075 181.919 360.16 182.378 360.16C182.89 360.16 183.354 360.075 183.77 359.904C184.186 359.723 184.517 359.467 184.762 359.136C185.018 358.795 185.146 358.389 185.146 357.92L184.89 357.12C184.89 357.579 184.794 357.947 184.602 358.224C184.421 358.501 184.165 358.704 183.834 358.832C183.503 358.96 183.125 359.024 182.698 359.024C182.41 359.024 182.149 358.981 181.914 358.896C181.679 358.8 181.493 358.667 181.354 358.496C181.215 358.315 181.146 358.096 181.146 357.84ZM181.146 354.368C181.263 354.283 181.423 354.181 181.626 354.064C181.839 353.936 182.09 353.829 182.378 353.744C182.666 353.648 182.986 353.6 183.338 353.6C183.743 353.6 184.101 353.696 184.41 353.888C184.73 354.069 184.89 354.347 184.89 354.72V360H186.17V354.72C186.17 354.24 186.047 353.835 185.802 353.504C185.567 353.173 185.237 352.923 184.81 352.752C184.394 352.571 183.903 352.48 183.338 352.48C182.677 352.48 182.111 352.581 181.642 352.784C181.173 352.987 180.799 353.189 180.522 353.392L181.146 354.368ZM190.944 356.32C191.786 356.32 192.442 356.144 192.912 355.792C193.392 355.44 193.632 354.997 193.632 354.464C193.632 354.101 193.52 353.771 193.296 353.472C193.082 353.173 192.784 352.933 192.4 352.752C192.016 352.571 191.584 352.48 191.104 352.48C190.592 352.48 190.133 352.587 189.728 352.8C189.322 353.003 189.002 353.28 188.768 353.632C188.533 353.984 188.416 354.368 188.416 354.784H189.712C189.712 354.613 189.76 354.443 189.856 354.272C189.952 354.091 190.101 353.941 190.304 353.824C190.517 353.696 190.784 353.632 191.104 353.632C191.488 353.632 191.786 353.717 192 353.888C192.213 354.048 192.32 354.272 192.32 354.56C192.32 354.827 192.213 355.056 192 355.248C191.786 355.429 191.434 355.52 190.944 355.52V356.32ZM191.072 360.16C191.594 360.16 192.074 360.069 192.512 359.888C192.949 359.696 193.296 359.429 193.552 359.088C193.818 358.736 193.952 358.32 193.952 357.84C193.952 357.147 193.68 356.64 193.136 356.32C192.592 356 191.861 355.84 190.944 355.84V356.64C191.317 356.64 191.632 356.688 191.888 356.784C192.154 356.88 192.352 357.019 192.48 357.2C192.618 357.381 192.688 357.6 192.688 357.856C192.688 358.091 192.624 358.299 192.496 358.48C192.368 358.661 192.181 358.8 191.936 358.896C191.701 358.992 191.413 359.04 191.072 359.04C190.517 359.04 190.117 358.901 189.872 358.624C189.626 358.347 189.466 358.032 189.392 357.68H188.096C188.181 358.395 188.48 358.987 188.992 359.456C189.514 359.925 190.208 360.16 191.072 360.16ZM196.619 356.16V356.832H198.747C198.992 356.832 199.2 356.859 199.371 356.912C199.552 356.955 199.696 357.024 199.803 357.12C199.92 357.216 200.006 357.323 200.059 357.44C200.123 357.557 200.155 357.691 200.155 357.84C200.155 358.128 200.038 358.373 199.803 358.576C199.579 358.779 199.227 358.88 198.747 358.88H196.619V360H199.067C199.91 360 200.512 359.808 200.875 359.424C201.248 359.029 201.435 358.555 201.435 358C201.435 357.52 201.318 357.147 201.083 356.88C200.848 356.613 200.528 356.427 200.123 356.32C199.718 356.213 199.259 356.16 198.747 356.16H196.619ZM196.619 356.48H198.587C199.046 356.48 199.462 356.416 199.835 356.288C200.219 356.149 200.528 355.947 200.763 355.68C200.998 355.403 201.115 355.056 201.115 354.64C201.115 354.16 200.998 353.776 200.763 353.488C200.528 353.189 200.219 352.976 199.835 352.848C199.462 352.709 199.046 352.64 198.587 352.64H196.619V353.76H198.587C198.971 353.76 199.275 353.851 199.499 354.032C199.723 354.203 199.835 354.432 199.835 354.72C199.835 354.859 199.803 354.992 199.739 355.12C199.686 355.237 199.606 355.344 199.499 355.44C199.392 355.536 199.259 355.611 199.099 355.664C198.95 355.707 198.779 355.728 198.587 355.728H196.619V356.48ZM195.867 352.64V360H197.147V352.64H195.867ZM203.293 356.64H209.581C209.592 356.576 209.597 356.512 209.597 356.448C209.597 356.384 209.597 356.32 209.597 356.256C209.597 355.477 209.453 354.811 209.165 354.256C208.877 353.691 208.472 353.253 207.949 352.944C207.426 352.635 206.818 352.48 206.125 352.48C205.496 352.48 204.925 352.608 204.413 352.864C203.912 353.12 203.501 353.477 203.181 353.936C202.861 354.395 202.648 354.928 202.541 355.536C202.52 355.664 202.504 355.792 202.493 355.92C202.482 356.048 202.477 356.181 202.477 356.32C202.477 357.056 202.626 357.717 202.925 358.304C203.234 358.88 203.65 359.333 204.173 359.664C204.706 359.995 205.304 360.16 205.965 360.16C206.605 360.16 207.138 360.085 207.565 359.936C207.992 359.776 208.354 359.557 208.653 359.28C208.952 358.992 209.224 358.661 209.469 358.288L208.429 357.632C208.269 357.899 208.077 358.133 207.853 358.336C207.629 358.528 207.373 358.683 207.085 358.8C206.808 358.907 206.488 358.96 206.125 358.96C205.645 358.96 205.229 358.859 204.877 358.656C204.525 358.453 204.253 358.155 204.061 357.76C203.869 357.365 203.773 356.885 203.773 356.32L203.805 355.84C203.805 355.381 203.906 354.987 204.109 354.656C204.322 354.315 204.605 354.053 204.957 353.872C205.309 353.691 205.698 353.6 206.125 353.6C206.552 353.6 206.909 353.685 207.197 353.856C207.496 354.016 207.725 354.245 207.885 354.544C208.056 354.832 208.162 355.168 208.205 355.552H203.293V356.64ZM212.551 363.52V352.64H211.271V363.52H212.551ZM218.711 356.32C218.711 355.52 218.546 354.837 218.215 354.272C217.885 353.696 217.442 353.253 216.887 352.944C216.343 352.635 215.735 352.48 215.063 352.48C214.455 352.48 213.917 352.635 213.447 352.944C212.989 353.253 212.626 353.696 212.359 354.272C212.103 354.837 211.975 355.52 211.975 356.32C211.975 357.109 212.103 357.792 212.359 358.368C212.626 358.944 212.989 359.387 213.447 359.696C213.917 360.005 214.455 360.16 215.063 360.16C215.735 360.16 216.343 360.005 216.887 359.696C217.442 359.387 217.885 358.944 218.215 358.368C218.546 357.792 218.711 357.109 218.711 356.32ZM217.415 356.32C217.415 356.885 217.298 357.365 217.063 357.76C216.839 358.155 216.535 358.453 216.151 358.656C215.778 358.859 215.362 358.96 214.903 358.96C214.53 358.96 214.162 358.859 213.799 358.656C213.437 358.453 213.138 358.155 212.903 357.76C212.669 357.365 212.551 356.885 212.551 356.32C212.551 355.755 212.669 355.275 212.903 354.88C213.138 354.485 213.437 354.187 213.799 353.984C214.162 353.781 214.53 353.68 214.903 353.68C215.362 353.68 215.778 353.781 216.151 353.984C216.535 354.187 216.839 354.485 217.063 354.88C217.298 355.275 217.415 355.755 217.415 356.32ZM221.228 356.72H226.668V355.52H221.228V356.72ZM225.836 352.64V360H227.116V352.64H225.836ZM220.476 352.64V360H221.756V352.64H220.476ZM235.363 352.64H233.923L231.651 358.336L232.179 358.4L229.843 352.64H228.323L231.139 358.96L229.123 363.52H230.563L235.363 352.64ZM235.45 352.64V353.84H239.77V352.64H235.45ZM236.97 352.96V360H238.25V352.96H236.97ZM241.054 352.64V360H242.334V352.64H241.054ZM241.806 356.544H244.094C244.564 356.544 244.916 356.645 245.15 356.848C245.385 357.051 245.502 357.339 245.502 357.712C245.502 357.957 245.449 358.171 245.342 358.352C245.236 358.523 245.076 358.656 244.862 358.752C244.66 358.837 244.404 358.88 244.094 358.88H241.806V360H244.094C244.606 360 245.065 359.92 245.47 359.76C245.876 359.6 246.196 359.349 246.43 359.008C246.665 358.667 246.782 358.235 246.782 357.712C246.782 356.923 246.521 356.347 245.998 355.984C245.486 355.611 244.852 355.424 244.094 355.424H241.806V356.544ZM253.506 352.64V360H254.786V352.64H253.506ZM257.506 352.64L254.306 355.68L257.826 360H259.426L255.906 355.68L259.106 352.64H257.506ZM259.758 356.32C259.758 357.056 259.924 357.717 260.254 358.304C260.596 358.88 261.054 359.333 261.63 359.664C262.206 359.995 262.852 360.16 263.566 360.16C264.292 360.16 264.937 359.995 265.502 359.664C266.078 359.333 266.532 358.88 266.862 358.304C267.204 357.717 267.374 357.056 267.374 356.32C267.374 355.573 267.204 354.912 266.862 354.336C266.532 353.76 266.078 353.307 265.502 352.976C264.937 352.645 264.292 352.48 263.566 352.48C262.852 352.48 262.206 352.645 261.63 352.976C261.054 353.307 260.596 353.76 260.254 354.336C259.924 354.912 259.758 355.573 259.758 356.32ZM261.054 356.32C261.054 355.808 261.161 355.355 261.374 354.96C261.598 354.555 261.897 354.24 262.27 354.016C262.654 353.792 263.086 353.68 263.566 353.68C264.046 353.68 264.473 353.792 264.846 354.016C265.23 354.24 265.529 354.555 265.742 354.96C265.966 355.355 266.078 355.808 266.078 356.32C266.078 356.832 265.966 357.285 265.742 357.68C265.529 358.075 265.23 358.389 264.846 358.624C264.473 358.848 264.046 358.96 263.566 358.96C263.086 358.96 262.654 358.848 262.27 358.624C261.897 358.389 261.598 358.075 261.374 357.68C261.161 357.285 261.054 356.832 261.054 356.32ZM272.336 354.848L274.496 359.52H275.936L272.336 352.08L268.736 359.52H270.176L272.336 354.848ZM275.616 360V361.44H276.896V358.8H267.776V361.44H269.136V360H275.616ZM284.369 356.72H289.809V355.52H284.369V356.72ZM288.977 352.64V360H290.257V352.64H288.977ZM283.617 352.64V360H284.897V352.64H283.617ZM293.24 357.84C293.24 357.541 293.309 357.285 293.448 357.072C293.587 356.859 293.795 356.693 294.072 356.576C294.36 356.459 294.717 356.4 295.144 356.4C295.613 356.4 296.035 356.464 296.408 356.592C296.781 356.709 297.149 356.896 297.512 357.152V356.4C297.437 356.304 297.299 356.181 297.096 356.032C296.893 355.872 296.621 355.733 296.28 355.616C295.949 355.488 295.549 355.424 295.08 355.424C294.44 355.424 293.885 355.525 293.416 355.728C292.947 355.92 292.584 356.197 292.328 356.56C292.072 356.923 291.944 357.365 291.944 357.888C291.944 358.389 292.056 358.811 292.28 359.152C292.515 359.483 292.824 359.733 293.208 359.904C293.592 360.075 294.013 360.16 294.472 360.16C294.984 360.16 295.448 360.075 295.864 359.904C296.28 359.723 296.611 359.467 296.856 359.136C297.112 358.795 297.24 358.389 297.24 357.92L296.984 357.12C296.984 357.579 296.888 357.947 296.696 358.224C296.515 358.501 296.259 358.704 295.928 358.832C295.597 358.96 295.219 359.024 294.792 359.024C294.504 359.024 294.243 358.981 294.008 358.896C293.773 358.8 293.587 358.667 293.448 358.496C293.309 358.315 293.24 358.096 293.24 357.84ZM293.24 354.368C293.357 354.283 293.517 354.181 293.72 354.064C293.933 353.936 294.184 353.829 294.472 353.744C294.76 353.648 295.08 353.6 295.432 353.6C295.837 353.6 296.195 353.696 296.504 353.888C296.824 354.069 296.984 354.347 296.984 354.72V360H298.264V354.72C298.264 354.24 298.141 353.835 297.896 353.504C297.661 353.173 297.331 352.923 296.904 352.752C296.488 352.571 295.997 352.48 295.432 352.48C294.771 352.48 294.205 352.581 293.736 352.784C293.267 352.987 292.893 353.189 292.616 353.392L293.24 354.368ZM305.802 356.32C305.802 355.808 305.909 355.355 306.122 354.96C306.346 354.555 306.645 354.24 307.018 354.016C307.402 353.792 307.834 353.68 308.314 353.68C308.709 353.68 309.077 353.744 309.418 353.872C309.77 353.989 310.074 354.149 310.33 354.352C310.586 354.555 310.768 354.779 310.874 355.024V353.424C310.618 353.125 310.25 352.896 309.77 352.736C309.301 352.565 308.816 352.48 308.314 352.48C307.6 352.48 306.954 352.645 306.378 352.976C305.802 353.307 305.344 353.76 305.002 354.336C304.672 354.912 304.506 355.573 304.506 356.32C304.506 357.056 304.672 357.717 305.002 358.304C305.344 358.88 305.802 359.333 306.378 359.664C306.954 359.995 307.6 360.16 308.314 360.16C308.816 360.16 309.301 360.08 309.77 359.92C310.25 359.749 310.618 359.515 310.874 359.216V357.616C310.768 357.851 310.586 358.075 310.33 358.288C310.074 358.491 309.77 358.656 309.418 358.784C309.077 358.901 308.709 358.96 308.314 358.96C307.834 358.96 307.402 358.848 307.018 358.624C306.645 358.389 306.346 358.075 306.122 357.68C305.909 357.285 305.802 356.832 305.802 356.32ZM313.043 356.64H319.331C319.342 356.576 319.347 356.512 319.347 356.448C319.347 356.384 319.347 356.32 319.347 356.256C319.347 355.477 319.203 354.811 318.915 354.256C318.627 353.691 318.222 353.253 317.699 352.944C317.176 352.635 316.568 352.48 315.875 352.48C315.246 352.48 314.675 352.608 314.163 352.864C313.662 353.12 313.251 353.477 312.931 353.936C312.611 354.395 312.398 354.928 312.291 355.536C312.27 355.664 312.254 355.792 312.243 355.92C312.232 356.048 312.227 356.181 312.227 356.32C312.227 357.056 312.376 357.717 312.675 358.304C312.984 358.88 313.4 359.333 313.923 359.664C314.456 359.995 315.054 360.16 315.715 360.16C316.355 360.16 316.888 360.085 317.315 359.936C317.742 359.776 318.104 359.557 318.403 359.28C318.702 358.992 318.974 358.661 319.219 358.288L318.179 357.632C318.019 357.899 317.827 358.133 317.603 358.336C317.379 358.528 317.123 358.683 316.835 358.8C316.558 358.907 316.238 358.96 315.875 358.96C315.395 358.96 314.979 358.859 314.627 358.656C314.275 358.453 314.003 358.155 313.811 357.76C313.619 357.365 313.523 356.885 313.523 356.32L313.555 355.84C313.555 355.381 313.656 354.987 313.859 354.656C314.072 354.315 314.355 354.053 314.707 353.872C315.059 353.691 315.448 353.6 315.875 353.6C316.302 353.6 316.659 353.685 316.947 353.856C317.246 354.016 317.475 354.245 317.635 354.544C317.806 354.832 317.912 355.168 317.955 355.552H313.043V356.64ZM322.301 363.52V352.64H321.021V363.52H322.301ZM328.461 356.32C328.461 355.52 328.296 354.837 327.965 354.272C327.635 353.696 327.192 353.253 326.637 352.944C326.093 352.635 325.485 352.48 324.813 352.48C324.205 352.48 323.667 352.635 323.197 352.944C322.739 353.253 322.376 353.696 322.109 354.272C321.853 354.837 321.725 355.52 321.725 356.32C321.725 357.109 321.853 357.792 322.109 358.368C322.376 358.944 322.739 359.387 323.197 359.696C323.667 360.005 324.205 360.16 324.813 360.16C325.485 360.16 326.093 360.005 326.637 359.696C327.192 359.387 327.635 358.944 327.965 358.368C328.296 357.792 328.461 357.109 328.461 356.32ZM327.165 356.32C327.165 356.885 327.048 357.365 326.813 357.76C326.589 358.155 326.285 358.453 325.901 358.656C325.528 358.859 325.112 358.96 324.653 358.96C324.28 358.96 323.912 358.859 323.549 358.656C323.187 358.453 322.888 358.155 322.653 357.76C322.419 357.365 322.301 356.885 322.301 356.32C322.301 355.755 322.419 355.275 322.653 354.88C322.888 354.485 323.187 354.187 323.549 353.984C323.912 353.781 324.28 353.68 324.653 353.68C325.112 353.68 325.528 353.781 325.901 353.984C326.285 354.187 326.589 354.485 326.813 354.88C327.048 355.275 327.165 355.755 327.165 356.32ZM330.978 356.16V356.832H333.106C333.352 356.832 333.56 356.859 333.73 356.912C333.912 356.955 334.056 357.024 334.162 357.12C334.28 357.216 334.365 357.323 334.418 357.44C334.482 357.557 334.514 357.691 334.514 357.84C334.514 358.128 334.397 358.373 334.162 358.576C333.938 358.779 333.586 358.88 333.106 358.88H330.978V360H333.426C334.269 360 334.872 359.808 335.234 359.424C335.608 359.029 335.794 358.555 335.794 358C335.794 357.52 335.677 357.147 335.442 356.88C335.208 356.613 334.888 356.427 334.482 356.32C334.077 356.213 333.618 356.16 333.106 356.16H330.978ZM330.978 356.48H332.946C333.405 356.48 333.821 356.416 334.194 356.288C334.578 356.149 334.888 355.947 335.122 355.68C335.357 355.403 335.474 355.056 335.474 354.64C335.474 354.16 335.357 353.776 335.122 353.488C334.888 353.189 334.578 352.976 334.194 352.848C333.821 352.709 333.405 352.64 332.946 352.64H330.978V353.76H332.946C333.33 353.76 333.634 353.851 333.858 354.032C334.082 354.203 334.194 354.432 334.194 354.72C334.194 354.859 334.162 354.992 334.098 355.12C334.045 355.237 333.965 355.344 333.858 355.44C333.752 355.536 333.618 355.611 333.458 355.664C333.309 355.707 333.138 355.728 332.946 355.728H330.978V356.48ZM330.226 352.64V360H331.506V352.64H330.226ZM337.652 356.64H343.94C343.951 356.576 343.956 356.512 343.956 356.448C343.956 356.384 343.956 356.32 343.956 356.256C343.956 355.477 343.812 354.811 343.524 354.256C343.236 353.691 342.831 353.253 342.308 352.944C341.786 352.635 341.178 352.48 340.484 352.48C339.855 352.48 339.284 352.608 338.772 352.864C338.271 353.12 337.86 353.477 337.54 353.936C337.22 354.395 337.007 354.928 336.9 355.536C336.879 355.664 336.863 355.792 336.852 355.92C336.842 356.048 336.836 356.181 336.836 356.32C336.836 357.056 336.986 357.717 337.284 358.304C337.594 358.88 338.01 359.333 338.532 359.664C339.066 359.995 339.663 360.16 340.324 360.16C340.964 360.16 341.498 360.085 341.924 359.936C342.351 359.776 342.714 359.557 343.012 359.28C343.311 358.992 343.583 358.661 343.828 358.288L342.788 357.632C342.628 357.899 342.436 358.133 342.212 358.336C341.988 358.528 341.732 358.683 341.444 358.8C341.167 358.907 340.847 358.96 340.484 358.96C340.004 358.96 339.588 358.859 339.236 358.656C338.884 358.453 338.612 358.155 338.42 357.76C338.228 357.365 338.132 356.885 338.132 356.32L338.164 355.84C338.164 355.381 338.266 354.987 338.468 354.656C338.682 354.315 338.964 354.053 339.316 353.872C339.668 353.691 340.058 353.6 340.484 353.6C340.911 353.6 341.268 353.685 341.556 353.856C341.855 354.016 342.084 354.245 342.244 354.544C342.415 354.832 342.522 355.168 342.564 355.552H337.652V356.64ZM346.911 363.52V352.64H345.631V363.52H346.911ZM353.071 356.32C353.071 355.52 352.905 354.837 352.575 354.272C352.244 353.696 351.801 353.253 351.247 352.944C350.703 352.635 350.095 352.48 349.423 352.48C348.815 352.48 348.276 352.635 347.807 352.944C347.348 353.253 346.985 353.696 346.719 354.272C346.463 354.837 346.335 355.52 346.335 356.32C346.335 357.109 346.463 357.792 346.719 358.368C346.985 358.944 347.348 359.387 347.807 359.696C348.276 360.005 348.815 360.16 349.423 360.16C350.095 360.16 350.703 360.005 351.247 359.696C351.801 359.387 352.244 358.944 352.575 358.368C352.905 357.792 353.071 357.109 353.071 356.32ZM351.775 356.32C351.775 356.885 351.657 357.365 351.423 357.76C351.199 358.155 350.895 358.453 350.511 358.656C350.137 358.859 349.721 358.96 349.263 358.96C348.889 358.96 348.521 358.859 348.159 358.656C347.796 358.453 347.497 358.155 347.263 357.76C347.028 357.365 346.911 356.885 346.911 356.32C346.911 355.755 347.028 355.275 347.263 354.88C347.497 354.485 347.796 354.187 348.159 353.984C348.521 353.781 348.889 353.68 349.263 353.68C349.721 353.68 350.137 353.781 350.511 353.984C350.895 354.187 351.199 354.485 351.423 354.88C351.657 355.275 351.775 355.755 351.775 356.32ZM355.012 356.64H361.3C361.31 356.576 361.316 356.512 361.316 356.448C361.316 356.384 361.316 356.32 361.316 356.256C361.316 355.477 361.172 354.811 360.884 354.256C360.596 353.691 360.19 353.253 359.668 352.944C359.145 352.635 358.537 352.48 357.844 352.48C357.214 352.48 356.644 352.608 356.132 352.864C355.63 353.12 355.22 353.477 354.9 353.936C354.58 354.395 354.366 354.928 354.26 355.536C354.238 355.664 354.222 355.792 354.212 355.92C354.201 356.048 354.196 356.181 354.196 356.32C354.196 357.056 354.345 357.717 354.644 358.304C354.953 358.88 355.369 359.333 355.892 359.664C356.425 359.995 357.022 360.16 357.684 360.16C358.324 360.16 358.857 360.085 359.284 359.936C359.71 359.776 360.073 359.557 360.372 359.28C360.67 358.992 360.942 358.661 361.188 358.288L360.148 357.632C359.988 357.899 359.796 358.133 359.572 358.336C359.348 358.528 359.092 358.683 358.804 358.8C358.526 358.907 358.206 358.96 357.844 358.96C357.364 358.96 356.948 358.859 356.596 358.656C356.244 358.453 355.972 358.155 355.78 357.76C355.588 357.365 355.492 356.885 355.492 356.32L355.524 355.84C355.524 355.381 355.625 354.987 355.828 354.656C356.041 354.315 356.324 354.053 356.676 353.872C357.028 353.691 357.417 353.6 357.844 353.6C358.27 353.6 358.628 353.685 358.916 353.856C359.214 354.016 359.444 354.245 359.604 354.544C359.774 354.832 359.881 355.168 359.924 355.552H355.012V356.64Z" fill="white"/>
</svg>
